<svg xmlns="http://www.w3.org/2000/svg" xmlns:xlink="http://www.w3.org/1999/xlink" width="710" height="463" viewBox="0 0 710 463">
  <defs>
    <clipPath id="clip-path">
      <rect id="Rectangle_1351" data-name="Rectangle 1351" width="584" height="365" transform="translate(2436 -10326.513)" fill="#fff" stroke="#707070" stroke-width="1"/>
    </clipPath>
    <linearGradient id="linear-gradient" x1="0.5" y1="1" x2="0.5" gradientUnits="objectBoundingBox">
      <stop offset="0" stop-color="#eee"/>
      <stop offset="0.546" stop-color="#eee"/>
      <stop offset="1" stop-color="#fbfbfb"/>
    </linearGradient>
    <linearGradient id="linear-gradient-2" x1="0.124" y1="0.837" x2="0.876" y2="0.163" gradientUnits="objectBoundingBox">
      <stop offset="0" stop-color="#fe9902"/>
      <stop offset="0.062" stop-color="#fba00a"/>
      <stop offset="0.255" stop-color="#f2b21f"/>
      <stop offset="0.445" stop-color="#edbc2c"/>
      <stop offset="0.627" stop-color="#ecc030"/>
      <stop offset="0.833" stop-color="#f0d56c"/>
      <stop offset="0.865" stop-color="#efd263"/>
    </linearGradient>
    <linearGradient id="linear-gradient-3" x1="-1.023" y1="0.092" x2="2.027" y2="0.909" gradientUnits="objectBoundingBox">
      <stop offset="0" stop-color="#fe9902"/>
      <stop offset="0.137" stop-color="#f9a40f"/>
      <stop offset="0.398" stop-color="#f2b321"/>
      <stop offset="0.671" stop-color="#edbd2c"/>
      <stop offset="0.974" stop-color="#ecc030"/>
    </linearGradient>
    <linearGradient id="linear-gradient-4" x1="-0.963" y1="0.09" x2="1.96" y2="0.91" gradientUnits="objectBoundingBox">
      <stop offset="0" stop-color="#488eff"/>
      <stop offset="0.732" stop-color="#001f8e"/>
    </linearGradient>
    <linearGradient id="linear-gradient-5" y1="0.499" x2="1" y2="0.499" gradientUnits="objectBoundingBox">
      <stop offset="0.147" stop-color="#488eff"/>
      <stop offset="0.764" stop-color="#001f8e"/>
    </linearGradient>
    <linearGradient id="linear-gradient-6" x1="0.5" y1="1" x2="0.5" gradientUnits="objectBoundingBox">
      <stop offset="0.171" stop-color="#00c8e7" stop-opacity="0"/>
      <stop offset="0.784" stop-color="#00c8e7" stop-opacity="0.102"/>
    </linearGradient>
    <linearGradient id="linear-gradient-7" y1="0.5" x2="1" y2="0.5" gradientUnits="objectBoundingBox">
      <stop offset="0" stop-color="#fe9902"/>
      <stop offset="0.974" stop-color="#ecc030"/>
    </linearGradient>
    <linearGradient id="linear-gradient-8" y1="0.5" x2="1" y2="0.5" gradientUnits="objectBoundingBox">
      <stop offset="0.058" stop-color="#dedede"/>
      <stop offset="0.296" stop-color="#eaeaea"/>
      <stop offset="0.654" stop-color="#f7f7f7"/>
      <stop offset="1" stop-color="#fbfbfb"/>
    </linearGradient>
    <linearGradient id="linear-gradient-9" x1="0.003" y1="0.497" x2="1.002" y2="0.497" gradientUnits="objectBoundingBox">
      <stop offset="0.099" stop-color="#1e1863"/>
      <stop offset="0.825" stop-color="#001f8e"/>
    </linearGradient>
    <linearGradient id="linear-gradient-10" x1="0.003" y1="0.501" x2="1.002" y2="0.501" xlink:href="#linear-gradient-9"/>
    <linearGradient id="linear-gradient-11" x1="0.001" y1="0.503" x2="1" y2="0.503" xlink:href="#linear-gradient-9"/>
    <linearGradient id="linear-gradient-12" x1="-0.003" y1="0.503" x2="0.997" y2="0.503" xlink:href="#linear-gradient-9"/>
    <linearGradient id="linear-gradient-13" x1="2.65" y1="12.205" x2="3.652" y2="12.205" xlink:href="#linear-gradient-2"/>
    <linearGradient id="linear-gradient-14" x1="-0.001" y1="0.503" x2="1.001" y2="0.503" xlink:href="#linear-gradient-5"/>
    <radialGradient id="radial-gradient" cx="0.405" cy="0.613" r="0.541" gradientTransform="translate(0.059 0.117) scale(0.862 0.8)" gradientUnits="objectBoundingBox">
      <stop offset="0.058" stop-color="#dedede"/>
      <stop offset="0.427" stop-color="#e5e5e5"/>
      <stop offset="0.984" stop-color="#fafafa"/>
      <stop offset="1" stop-color="#fbfbfb"/>
    </radialGradient>
    <linearGradient id="linear-gradient-15" x1="0.001" y1="0.5" x2="1" y2="0.5" gradientUnits="objectBoundingBox">
      <stop offset="0.171" stop-color="#00c8e7" stop-opacity="0"/>
      <stop offset="0.784" stop-color="#00c8e7" stop-opacity="0.2"/>
    </linearGradient>
    <linearGradient id="linear-gradient-16" x1="0" y1="0.503" x2="0.999" y2="0.503" xlink:href="#linear-gradient-15"/>
    <linearGradient id="linear-gradient-17" x1="0.698" y1="0.495" x2="1.698" y2="0.495" xlink:href="#linear-gradient-15"/>
    <linearGradient id="linear-gradient-18" x1="0.698" y1="0.5" x2="1.698" y2="0.5" xlink:href="#linear-gradient-15"/>
    <linearGradient id="linear-gradient-19" x1="0.698" y1="0.505" x2="1.698" y2="0.505" xlink:href="#linear-gradient-15"/>
    <linearGradient id="linear-gradient-20" x1="0" y1="0.5" x2="0.999" y2="0.5" gradientTransform="matrix(1, 0, 0, 1, 0, 0)" xlink:href="#radial-gradient"/>
    <linearGradient id="linear-gradient-21" x1="-0.245" y1="0.113" x2="1.39" y2="0.888" xlink:href="#linear-gradient-9"/>
    <linearGradient id="linear-gradient-22" x1="0" y1="0.498" x2="1.001" y2="0.498" gradientTransform="matrix(1, 0, 0, 1, 0, 0)" xlink:href="#radial-gradient"/>
    <linearGradient id="linear-gradient-23" x1="0.337" y1="-0.773" x2="0.662" y2="1.77" xlink:href="#linear-gradient-9"/>
    <linearGradient id="linear-gradient-24" x1="0.5" y1="0" x2="0.5" y2="0.999" xlink:href="#linear-gradient-9"/>
    <linearGradient id="linear-gradient-25" x1="0.5" y1="0.001" x2="0.5" y2="1" xlink:href="#linear-gradient-9"/>
    <radialGradient id="radial-gradient-2" cx="1.03" cy="1.032" r="0.492" gradientTransform="translate(-0.032 0) scale(1.036 1)" xlink:href="#radial-gradient"/>
    <linearGradient id="linear-gradient-26" x1="-1.012" y1="0.5" x2="-0.012" y2="0.5" gradientTransform="matrix(1, 0, 0, 1, 0, 0)" xlink:href="#radial-gradient"/>
    <linearGradient id="linear-gradient-27" x1="-0.825" y1="-0.77" x2="-0.501" y2="1.772" xlink:href="#linear-gradient-9"/>
    <linearGradient id="linear-gradient-28" x1="-1.852" y1="-0.002" x2="-1.852" y2="0.999" xlink:href="#linear-gradient-9"/>
    <linearGradient id="linear-gradient-29" x1="-7.494" y1="0" x2="-7.494" y2="1" xlink:href="#linear-gradient-9"/>
    <linearGradient id="linear-gradient-30" x1="0.5" y1="0" x2="0.5" y2="1" xlink:href="#linear-gradient-9"/>
    <linearGradient id="linear-gradient-31" x1="0.681" y1="-0.698" x2="0.318" y2="1.697" gradientTransform="matrix(1, 0, 0, 1, 0, 0)" xlink:href="#radial-gradient"/>
    <linearGradient id="linear-gradient-32" y1="0.501" x2="1.006" y2="0.501" gradientUnits="objectBoundingBox">
      <stop offset="0.034" stop-color="#488eff" stop-opacity="0.702"/>
      <stop offset="0.571" stop-color="#00c8e7"/>
    </linearGradient>
    <linearGradient id="linear-gradient-33" x1="-0.002" y1="0.499" x2="1.004" y2="0.499" xlink:href="#linear-gradient-32"/>
    <radialGradient id="radial-gradient-3" cx="22.493" cy="18.858" r="0.39" gradientTransform="translate(-19.431 0) scale(2.144 1)" xlink:href="#radial-gradient"/>
    <radialGradient id="radial-gradient-4" cx="0.858" cy="-380.979" r="35.378" gradientTransform="translate(0.763 35.336) scale(0.01 1.124)" xlink:href="#radial-gradient"/>
    <linearGradient id="linear-gradient-34" x1="5.249" y1="0.115" x2="-4.255" y2="0.885" gradientTransform="matrix(1, 0, 0, 1, 0, 0)" xlink:href="#radial-gradient"/>
    <linearGradient id="linear-gradient-35" x1="5.252" y1="0.115" x2="-4.252" y2="0.885" gradientTransform="matrix(1, 0, 0, 1, 0, 0)" xlink:href="#radial-gradient"/>
    <linearGradient id="linear-gradient-36" x1="0.895" y1="1.169" x2="0.106" y2="-0.169" xlink:href="#linear-gradient-9"/>
    <linearGradient id="linear-gradient-37" y1="0.5" x2="1" y2="0.5" gradientUnits="objectBoundingBox">
      <stop offset="0.058" stop-color="#dedede"/>
      <stop offset="0.294" stop-color="#eaeaea"/>
      <stop offset="0.653" stop-color="#f7f7f7"/>
      <stop offset="1" stop-color="#fbfbfb"/>
    </linearGradient>
    <linearGradient id="linear-gradient-38" x1="1.163" y1="0.499" x2="2.163" y2="0.499" gradientTransform="matrix(1, 0, 0, 1, 0, 0)" xlink:href="#radial-gradient"/>
    <linearGradient id="linear-gradient-39" x1="1.673" y1="-0.77" x2="1.998" y2="1.771" xlink:href="#linear-gradient-9"/>
    <linearGradient id="linear-gradient-40" x1="3.204" y1="0" x2="3.204" y2="1.001" xlink:href="#linear-gradient-9"/>
    <linearGradient id="linear-gradient-41" x1="9.689" y1="0" x2="9.689" y2="1" xlink:href="#linear-gradient-9"/>
    <linearGradient id="linear-gradient-42" x1="0.5" y1="0" x2="0.5" y2="1" xlink:href="#linear-gradient-9"/>
    <linearGradient id="linear-gradient-43" x1="0.768" y1="-0.201" x2="0.231" y2="1.2" gradientTransform="matrix(1, 0, 0, 1, 0, 0)" xlink:href="#radial-gradient"/>
    <linearGradient id="linear-gradient-44" x1="28.671" y1="0.5" x2="29.671" y2="0.5" gradientTransform="matrix(1, 0, 0, 1, 0, 0)" xlink:href="#radial-gradient"/>
    <linearGradient id="linear-gradient-45" x1="20.497" y1="0.113" x2="22.133" y2="0.888" xlink:href="#linear-gradient-9"/>
    <linearGradient id="linear-gradient-46" x1="3.378" y1="0.498" x2="4.378" y2="0.498" gradientTransform="matrix(1, 0, 0, 1, 0, 0)" xlink:href="#radial-gradient"/>
    <linearGradient id="linear-gradient-47" x1="4.219" y1="-0.773" x2="4.543" y2="1.77" xlink:href="#linear-gradient-9"/>
    <linearGradient id="linear-gradient-48" x1="8.356" y1="0" x2="8.356" y2="0.999" xlink:href="#linear-gradient-9"/>
    <linearGradient id="linear-gradient-49" x1="27.217" y1="0.001" x2="27.217" y2="1" xlink:href="#linear-gradient-9"/>
    <linearGradient id="linear-gradient-50" x1="4.528" y1="0.746" x2="4.142" y2="0.096" gradientUnits="objectBoundingBox">
      <stop offset="0" stop-color="#dedede"/>
      <stop offset="0.058" stop-color="#dedede"/>
      <stop offset="0.294" stop-color="#eaeaea"/>
      <stop offset="0.653" stop-color="#f7f7f7"/>
      <stop offset="1" stop-color="#f2f2f2"/>
    </linearGradient>
    <linearGradient id="linear-gradient-51" x1="0.064" y1="0.234" x2="0.95" y2="0.733" xlink:href="#linear-gradient-5"/>
  </defs>
  <g id="about" transform="translate(-968 -95)">
    <rect id="Rectangle_1551" data-name="Rectangle 1551" width="710" height="463" transform="translate(968 95)" fill="none"/>
    <g id="Mask_Group_47" data-name="Mask Group 47" transform="translate(-1405 10470.513)" clip-path="url(#clip-path)">
      <g id="Group_2136" data-name="Group 2136" transform="translate(2496.587 -10340.624)">
        <g id="BACKGROUND" transform="translate(172.932 76.644)">
          <rect id="Rectangle_527" data-name="Rectangle 527" width="119.494" height="119.494" fill="url(#linear-gradient)"/>
        </g>
        <g id="Group_2125" data-name="Group 2125" transform="translate(0 39.433)">
          <rect id="Rectangle_528" data-name="Rectangle 528" width="1.864" height="31.618" transform="translate(16.347 10.253)" fill="#001f8e"/>
          <path id="Path_2286" data-name="Path 2286" d="M-299.324,190.308l-4.995,1.84L-314.5,164.664l4.995-1.864Z" transform="translate(352.523 -146.429)" fill="url(#linear-gradient-2)"/>
          <rect id="Rectangle_529" data-name="Rectangle 529" width="6.477" height="41.871" transform="translate(18.211 0)" fill="url(#linear-gradient-3)"/>
          <rect id="Rectangle_530" data-name="Rectangle 530" width="4.732" height="30.614" transform="matrix(0.972, -0.237, 0.237, 0.972, 33.627, 13.616)" fill="#ff1a46"/>
          <rect id="Rectangle_531" data-name="Rectangle 531" width="5.616" height="34.677" transform="translate(28.774 7.194)" fill="url(#linear-gradient-4)"/>
          <rect id="Rectangle_532" data-name="Rectangle 532" width="4.158" height="36.637" transform="translate(24.735 5.234)" fill="#ff1a46"/>
          <g id="Group_1296" data-name="Group 1296" transform="translate(0 41.871)">
            <g id="Group_1289" data-name="Group 1289">
              <g id="Group_1288" data-name="Group 1288">
                <path id="Path_2287" data-name="Path 2287" d="M-468.055,275.953a5.493,5.493,0,0,1-5.545-5.425V269.5h106.326v1.028a5.493,5.493,0,0,1-5.544,5.425Z" transform="translate(473.6 -269.5)" fill="url(#linear-gradient-5)"/>
                <path id="Path_2288" data-name="Path 2288" d="M-436.5,269.5h-37v1.028a5.473,5.473,0,0,0,5.544,5.4h95.189a5.473,5.473,0,0,0,5.545-5.4V269.5H-436.5Z" transform="translate(473.524 -269.5)" fill="#fff"/>
              </g>
            </g>
            <g id="Group_1291" data-name="Group 1291" transform="translate(92.106 6.429)">
              <g id="Group_1290" data-name="Group 1290" transform="translate(0)">
                <path id="Path_2289" data-name="Path 2289" d="M-87.435,302.685l-.621-5.114-.143-1.147,3.728-.024-.072.6-.836,5.664v.024Z" transform="translate(88.2 -296.4)" fill="#00c8e7"/>
                <path id="Path_2290" data-name="Path 2290" d="M-88.2,296.5l.143,1.147.621,5.091h2.055l.836-5.664.072-.574Z" transform="translate(88.2 -296.476)" fill="#00c8e7"/>
              </g>
            </g>
            <g id="Group_1293" data-name="Group 1293" transform="translate(53.294 6.429)">
              <g id="Group_1292" data-name="Group 1292">
                <path id="Path_2291" data-name="Path 2291" d="M-249.835,302.685l-.765-6.262,3.728-.024-.55,3.848-.358,2.414v.024Z" transform="translate(250.6 -296.4)" fill="#00c8e7"/>
                <path id="Path_2292" data-name="Path 2292" d="M-250.6,296.5l.478,3.824.287,2.414h2.055l.358-2.414.55-3.824Z" transform="translate(250.6 -296.476)" fill="#00c8e7"/>
              </g>
            </g>
            <g id="Group_1295" data-name="Group 1295" transform="translate(14.483 6.477)">
              <g id="Group_1294" data-name="Group 1294">
                <path id="Path_2293" data-name="Path 2293" d="M-412.235,302.862-413,296.6h3.728l-.908,6.262h-2.055Z" transform="translate(413 -296.6)" fill="#00c8e7"/>
                <path id="Path_2294" data-name="Path 2294" d="M-413,296.6l.765,6.262h2.055l.86-5.855.048-.406Z" transform="translate(413 -296.6)" fill="#00c8e7"/>
              </g>
            </g>
          </g>
        </g>
        <rect id="Rectangle_1350" data-name="Rectangle 1350" width="98.392" height="82.714" transform="translate(5.568 84.912)" fill="url(#linear-gradient-6)"/>
        <g id="Group_2126" data-name="Group 2126" transform="translate(416.485 29)">
          <g id="Group_1301" data-name="Group 1301" transform="translate(0 0)">
            <ellipse id="Ellipse_1934" data-name="Ellipse 1934" cx="23.588" cy="23.588" rx="23.588" ry="23.588" fill="url(#linear-gradient-7)"/>
            <ellipse id="Ellipse_1935" data-name="Ellipse 1935" cx="20.457" cy="20.457" rx="20.457" ry="20.457" transform="translate(3.131 3.131)" fill="url(#linear-gradient-8)"/>
            <g id="Group_1300" data-name="Group 1300" transform="translate(6.787 6.787)">
              <g id="Group_1298" data-name="Group 1298" transform="translate(15.295)">
                <path id="Path_2295" data-name="Path 2295" d="M1364.511-40.794a1.5,1.5,0,0,1-1.505,1.506,1.5,1.5,0,0,1-1.506-1.506,1.5,1.5,0,0,1,1.506-1.506A1.5,1.5,0,0,1,1364.511-40.794Z" transform="translate(-1361.5 42.3)" fill="url(#linear-gradient-9)"/>
                <path id="Path_2296" data-name="Path 2296" d="M1364.511,87.306a1.506,1.506,0,1,1-1.505-1.506A1.5,1.5,0,0,1,1364.511,87.306Z" transform="translate(-1361.5 -55.186)" fill="url(#linear-gradient-10)"/>
              </g>
              <g id="Group_1299" data-name="Group 1299" transform="translate(0 15.295)">
                <path id="Path_2297" data-name="Path 2297" d="M1427.105,24.711a1.506,1.506,0,1,1,1.506-1.506A1.5,1.5,0,0,1,1427.105,24.711Z" transform="translate(-1394.985 -21.7)" fill="url(#linear-gradient-11)"/>
                <path id="Path_2298" data-name="Path 2298" d="M1299.006,24.711a1.506,1.506,0,1,1,1.505-1.506A1.515,1.515,0,0,1,1299.006,24.711Z" transform="translate(-1297.5 -21.7)" fill="url(#linear-gradient-12)"/>
              </g>
            </g>
          </g>
          <path id="Path_2299" data-name="Path 2299" d="M1353.872,14.837h0a5.493,5.493,0,0,1-7.719-.765h0a5.493,5.493,0,0,1,.765-7.719h0a5.493,5.493,0,0,1,7.719.765h0A5.517,5.517,0,0,1,1353.872,14.837Z" transform="translate(-1326.795 13.005)" fill="url(#linear-gradient-13)"/>
          <path id="Path_2300" data-name="Path 2300" d="M1333.143,25.1a1.112,1.112,0,0,1,1.1,1.1h0a1.112,1.112,0,0,1-1.1,1.1l-11.113-.765a.336.336,0,0,1,0-.669Z" transform="translate(-1309.148 -2.205)" fill="url(#linear-gradient-14)"/>
        </g>
        <g id="Group_2127" data-name="Group 2127" transform="translate(139.234 4.97)">
          <path id="Path_2321" data-name="Path 2321" d="M284.9,102.24H109.526a.53.53,0,0,1-.526-.526V-49.374a.53.53,0,0,1,.526-.526H284.9a.53.53,0,0,1,.526.526V101.714A.53.53,0,0,1,284.9,102.24Z" transform="translate(-109 49.9)" fill="url(#radial-gradient)"/>
          <rect id="Rectangle_534" data-name="Rectangle 534" width="45.384" height="3.011" transform="translate(6.978 6.787)" fill="#d3d7dc"/>
          <rect id="Rectangle_535" data-name="Rectangle 535" width="22.704" height="1.506" transform="translate(142.915 8.293)" fill="#d3d7dc"/>
          <g id="Group_1325" data-name="Group 1325" transform="translate(22.25 22.991)">
            <path id="Path_2322" data-name="Path 2322" d="M328.883,139.577H202.435a.327.327,0,0,1-.335-.335V46.635a.327.327,0,0,1,.335-.335H328.883a.327.327,0,0,1,.335.335v92.584A.333.333,0,0,1,328.883,139.577Z" transform="translate(-202.1 -46.3)" fill="#fff"/>
            <g id="Group_1323" data-name="Group 1323" transform="translate(7.409 3.441)">
              <path id="Path_2323" data-name="Path 2323" d="M255.445,65.456H233.458a.368.368,0,0,1-.358-.358V61.058a.368.368,0,0,1,.358-.358h21.987a.368.368,0,0,1,.358.358V65.1A.368.368,0,0,1,255.445,65.456Z" transform="translate(-233.1 -60.7)" fill="url(#linear-gradient-15)"/>
              <path id="Path_2324" data-name="Path 2324" d="M372.541,72.99H350.363a.265.265,0,0,1-.263-.263V70.863a.265.265,0,0,1,.263-.263h22.178a.265.265,0,0,1,.263.263v1.864A.265.265,0,0,1,372.541,72.99Z" transform="translate(-322.138 -68.234)" fill="url(#linear-gradient-16)"/>
            </g>
            <path id="Path_2325" data-name="Path 2325" d="M325.907,240.578H243.169a.668.668,0,0,1-.669-.669V192.469a.668.668,0,0,1,.669-.669h82.762a.668.668,0,0,1,.669.669v47.439A.689.689,0,0,1,325.907,240.578Z" transform="translate(-232.845 -157.027)" fill="#f0f2f5"/>
            <g id="Group_1324" data-name="Group 1324" transform="translate(7.552 15.749)">
              <path id="Path_2326" data-name="Path 2326" d="M233.7,153.075h71.6V152H233.7Z" transform="translate(-233.7 -142.488)" fill="url(#linear-gradient-17)"/>
              <path id="Path_2327" data-name="Path 2327" d="M233.7,133.175h71.6V132.1H233.7Z" transform="translate(-233.7 -127.344)" fill="url(#linear-gradient-18)"/>
              <path id="Path_2328" data-name="Path 2328" d="M233.7,113.275h71.6V112.2H233.7Z" transform="translate(-233.7 -112.2)" fill="url(#linear-gradient-19)"/>
            </g>
          </g>
          <path id="Path_2329" data-name="Path 2329" d="M637.515,95.257h-19a.214.214,0,0,1-.215-.215V85.315a.214.214,0,0,1,.215-.215h19a.214.214,0,0,1,.215.215v9.727A.214.214,0,0,1,637.515,95.257Z" transform="translate(-496.583 -52.837)" fill="#d3d7dc"/>
        </g>
        <g id="Group_2128" data-name="Group 2128" transform="translate(307.3 161.412)">
          <rect id="Rectangle_536" data-name="Rectangle 536" width="18.091" height="51.406" transform="translate(0 17.953) rotate(-42.544)" fill="#fdfdfd"/>
          <g id="Group_1329" data-name="Group 1329" transform="translate(18.957)">
            <g id="Group_1327" data-name="Group 1327" transform="translate(12.008 32.144)">
              <path id="Path_2330" data-name="Path 2330" d="M947.631,1365.2h-.12a5.832,5.832,0,1,0,5.951,5.831,5.953,5.953,0,0,0-.932-3.155A5.86,5.86,0,0,0,947.631,1365.2Z" transform="translate(-941.8 -1215.593)" fill="#d3d7dc"/>
              <path id="Path_2331" data-name="Path 2331" d="M1289.132,1367.876a5.751,5.751,0,0,0-.932,3.155,5.831,5.831,0,1,0,5.951-5.831h-.119A5.8,5.8,0,0,0,1289.132,1367.876Z" transform="translate(-1205.414 -1215.593)" fill="#d3d7dc"/>
              <path id="Path_2332" data-name="Path 2332" d="M1117.842,1366.295a5.822,5.822,0,1,0,6.692-.215,5.638,5.638,0,0,0-3.2-.98A5.966,5.966,0,0,0,1117.842,1366.295Z" transform="translate(-1073.988 -1215.517)" fill="#d3d7dc"/>
              <path id="Path_2333" data-name="Path 2333" d="M1288.269,899.511l6.572-4.66a12.883,12.883,0,0,0,5.449-10.539V839.43c0-10.157-2.677-9.679-2.916-9.607l-1.673,31.833v18.139a11.214,11.214,0,0,1-7.05,10.4l-1.052.43a4.087,4.087,0,0,1,.669,2.27Z" transform="translate(-1204.958 -808.146)" fill="url(#linear-gradient-20)"/>
              <path id="Path_2334" data-name="Path 2334" d="M1276.821,760.876l.932-18.139a3.361,3.361,0,0,0-3.37-3.537h-4.756a3.357,3.357,0,0,0-3.37,3.25c-.263,7.361-1,25.022-2.438,29.3-1.816,5.425-7.958,28.607,3.991,30.065h3.7a3.382,3.382,0,0,0,3.37-3.2l.311-5.831v-.024Z" transform="translate(-1184.428 -739.2)" fill="url(#linear-gradient-21)"/>
              <path id="Path_2335" data-name="Path 2335" d="M1003.767,1318.034a3.259,3.259,0,0,1-3.226,3.3H980.417a17.293,17.293,0,0,0-12.356,5.234l-2.462,2.509h.12a5.786,5.786,0,0,1,4.875,2.677c2.988-2.963,6.166-5.616,10.348-5.616h19.669a3.147,3.147,0,0,1,3.131,3.155v.98a5.786,5.786,0,0,1,3.489-1.171,5.639,5.639,0,0,1,3.2.98v-.765a3.146,3.146,0,0,1,3.131-3.155h19.645c4.206,0,7.361,2.653,10.348,5.616a5.787,5.787,0,0,1,4.875-2.677h.12l-2.438-2.509a17.389,17.389,0,0,0-12.38-5.234h-20.123a3.275,3.275,0,0,1-3.226-3.3v-.359h-6.692v.335Z" transform="translate(-959.912 -1179.445)" fill="url(#linear-gradient-22)"/>
              <path id="Path_2336" data-name="Path 2336" d="M1056.416,1092.341a4.187,4.187,0,0,0,4.182-4.182v-7.6a4.09,4.09,0,0,0-.669-2.271,4.139,4.139,0,0,0-3.49-1.888H992.582a4.172,4.172,0,0,0-4.182,4.182v7.6a4.172,4.172,0,0,0,4.182,4.182h63.834Z" transform="translate(-977.263 -995.813)" fill="url(#linear-gradient-23)"/>
              <path id="Path_2337" data-name="Path 2337" d="M1091.271,1152.134a9.057,9.057,0,0,0,9.034-9.034H1064.6a9.042,9.042,0,0,0,9.034,9.034h17.637Z" transform="translate(-1035.252 -1046.573)" fill="url(#linear-gradient-24)"/>
              <path id="Path_2338" data-name="Path 2338" d="M1117.4,1241.8v18.115h10.492V1241.8H1117.4Z" transform="translate(-1075.433 -1121.684)" fill="url(#linear-gradient-25)"/>
              <rect id="Rectangle_537" data-name="Rectangle 537" width="7.122" height="14.578" transform="translate(43.639 105.561)" fill="#001f8e"/>
            </g>
            <g id="Group_1328" data-name="Group 1328">
              <path id="Path_2339" data-name="Path 2339" d="M1188.767,677.919a.288.288,0,0,0,.12-.12,3.064,3.064,0,0,1-.287.239h0a.329.329,0,0,1,.1-.072C1188.719,677.967,1188.743,677.943,1188.767,677.919Z" transform="translate(-1117.61 -660.33)" fill="none"/>
              <path id="Path_2340" data-name="Path 2340" d="M1189.8,662.4c0,.024.024.024.024.048l.024.024a.023.023,0,0,0-.024-.024C1189.848,662.424,1189.824,662.4,1189.8,662.4Z" transform="translate(-1118.523 -648.61)" fill="none"/>
              <path id="Path_2341" data-name="Path 2341" d="M1191.75,710.758a4.357,4.357,0,0,1-.55-.358,4.5,4.5,0,0,0,.55.382,7.717,7.717,0,0,0,.765.406c-.143-.072-.311-.167-.454-.239C1191.965,710.878,1191.845,710.83,1191.75,710.758Z" transform="translate(-1119.588 -685.139)" fill="none"/>
              <path id="Path_2342" data-name="Path 2342" d="M1183.467,680.024h.048a.143.143,0,0,1-.1-.024h-.12l.12.024Z" transform="translate(-1113.576 -662.004)" fill="none"/>
              <path id="Path_2343" data-name="Path 2343" d="M1183.9,657.1a.074.074,0,0,1,.048.024c0-.024-.024-.024-.048-.024Z" transform="translate(-1114.033 -644.577)" fill="none"/>
              <path id="Path_2344" data-name="Path 2344" d="M1186,705.6c.072.072.12.143.191.215h.024A.915.915,0,0,1,1186,705.6Z" transform="translate(-1115.631 -681.486)" fill="none"/>
              <path id="Path_2345" data-name="Path 2345" d="M1184.2,657.243c.024.024.024.024.048.024,0-.024-.048-.048-.048-.024Z" transform="translate(-1114.261 -644.672)" fill="none"/>
              <path id="Path_2346" data-name="Path 2346" d="M1183.8,657Z" transform="translate(-1113.957 -644.501)" fill="none"/>
              <path id="Path_2347" data-name="Path 2347" d="M1198.7,714.6c.048.024.119.024.167.048a.346.346,0,0,0-.167-.048Z" transform="translate(-1125.296 -688.335)" fill="none"/>
              <path id="Path_2348" data-name="Path 2348" d="M1201.8,715.5a7.809,7.809,0,0,0,1.075.239c.167.024.335.024.5.048a3.552,3.552,0,0,1-.5-.048C1202.517,715.667,1202.158,715.6,1201.8,715.5Z" transform="translate(-1127.655 -689.02)" fill="none"/>
              <path id="Path_2349" data-name="Path 2349" d="M1178.2,679.8h0l1.219.072Z" transform="translate(-1109.695 -661.852)" fill="none"/>
              <path id="Path_2350" data-name="Path 2350" d="M1199.4,714.8l.215.072a.024.024,0,0,1-.024-.024C1199.52,714.824,1199.472,714.824,1199.4,714.8Z" transform="translate(-1125.829 -688.487)" fill="none"/>
              <path id="Path_2351" data-name="Path 2351" d="M1192.054,776.83c-.143-.143-.287-.287-.454-.43a2.646,2.646,0,0,1,.454.43Z" transform="translate(-1119.893 -735.365)" fill="none"/>
              <path id="Path_2352" data-name="Path 2352" d="M1127.941,615.239a3.2,3.2,0,0,0,.454.335,2.111,2.111,0,0,0,.239.143,5.117,5.117,0,0,0,.717.406l.143.048a.083.083,0,0,0,.048.024c.048.024.12.048.167.072.072.024.119.048.191.072a1.634,1.634,0,0,0,.191.072c.143.024.263.072.406.1.072.024.167.048.263.072a.3.3,0,0,1,.143.024.088.088,0,0,1,.072.024c.263.024.526.072.789.1h.144l.789.048.789.024h.191c.024,0,.024,0,.048.024.1,0,.191.024.287.024h0a2.457,2.457,0,0,1,.6.167c.024,0,.024,0,.048.024l.048.024c.024,0,.048.024.1.048h.024v.024h0v.072c0,.024.024.024.048.024h.024s.048,0,.048.024a.074.074,0,0,1,.048.024,3.476,3.476,0,0,0,.311.191h0a2.551,2.551,0,0,1,.263.215h0c.024.024.072.048.1.1a.517.517,0,0,1,.1.12,1.565,1.565,0,0,1,.287.358l.048.048c0,.024.024.024.024.048v.024h0c.024.024.024.024.024.048.024,0,.024.024.048.048l.024.024.024.024a.023.023,0,0,1,.024.024.023.023,0,0,0,.024.024.531.531,0,0,1,.072.119v.024c.024.024.024.072.048.12v.024h0a.074.074,0,0,0,.024.048.181.181,0,0,0,.024.1.491.491,0,0,0,.048.143c.024.024.024.072.048.12v.024a.358.358,0,0,0,.024.143,1.209,1.209,0,0,1,.048.311,1.361,1.361,0,0,1,.024.311v.311l-.024.526a.259.259,0,0,1-.024.119v.12a2.1,2.1,0,0,1-.119.359l-.048.072a.807.807,0,0,1-.167.263.333.333,0,0,1-.072.1h0c0,.024-.024.024-.048.048a.023.023,0,0,1-.024.024.534.534,0,0,1-.119.12c-.024,0-.048.024-.072.048s-.072.048-.1.072a.088.088,0,0,1-.072.024.083.083,0,0,0-.048.024c-.024,0-.024,0-.048.024h0l-.143.072c0,.024-.048.024-.048.024h-.1a.023.023,0,0,1-.024.024h-.024a.86.86,0,0,1-.263.048h-.048a.18.18,0,0,1-.12.024h-.143l-.12-.024-1.219-.048h-.024v.765h0v.86a8.848,8.848,0,0,0,.12.884c.024.167.072.335.1.5h0c.048.167.1.311.144.478.024.1.072.191.1.287.072.215.191.43.287.645a2.863,2.863,0,0,0,.287.526.182.182,0,0,0,.048.119.425.425,0,0,0,.1.12l.024.048c.048.072.12.167.191.263,0,.024.024.048.048.1a.084.084,0,0,1,.024.048.239.239,0,0,0,.1.12h0c.1.1.167.191.263.287.072.072.12.143.191.215h0c.143.143.311.311.478.454l.024.024c.167.143.335.287.5.406h0c.167.12.358.239.55.359a1.529,1.529,0,0,0,.335.191c.143.072.287.167.454.239a3.657,3.657,0,0,0,.454.191.442.442,0,0,1,.167.048c.048.024.119.024.167.048a.023.023,0,0,0,.024.024h.024l.215.072a.144.144,0,0,1,.1.024,8.555,8.555,0,0,0,1.076.215,3.568,3.568,0,0,0,.5.048l2.39.167.167-2.8.334-6.62.024-.167.143-2.629.359-7.074h0l.024-.478c0-.072-.024-.143-.024-.239v-.239a1.833,1.833,0,0,0-.048-.359l-.024-.143a3.328,3.328,0,0,0-.1-.478c-.024-.143-.1-.311-.143-.478a2.664,2.664,0,0,0-.12-.311c-.048-.12-.1-.215-.143-.335a5.258,5.258,0,0,0-.359-.621c-.072-.119-.167-.239-.239-.359v-.024a2.537,2.537,0,0,0-.239-.287.051.051,0,0,0-.048-.048.023.023,0,0,1-.024-.024c-.048-.048-.1-.12-.143-.167l-.167-.167-.359-.311a5.637,5.637,0,0,0-.789-.526,6.034,6.034,0,0,0-.884-.43l-6.692-.43-1.96-.119-1-.048-2.485-.144v.024l-7.409-.454a1.124,1.124,0,0,0-.215.143c-.072.048-.119.12-.191.167a1.694,1.694,0,0,0-.143.215l-.143.215h0a1.666,1.666,0,0,1-.12.311,2.208,2.208,0,0,0-.1.693.665.665,0,0,0,.024.215.215.215,0,0,0,.024.119.144.144,0,0,0,.024.1,1.031,1.031,0,0,1,.024.12c0,.024.024.048.048.1a1.051,1.051,0,0,0,.191.358,1.484,1.484,0,0,0,.215.287l1.219,1.147,5.975,5.616Z" transform="translate(-1065.1 -604.7)" fill="#171721"/>
              <path id="Path_2353" data-name="Path 2353" d="M1114.553,793.39h0l3.657-5.329,5.449-7.934c.143-.239.287-.478.43-.693a6.238,6.238,0,0,0,.334-.693c0-.024,0-.024.024-.048.1-.215.167-.454.239-.669a8.436,8.436,0,0,0,.382-2.677c-.024-.191-.024-.382-.048-.574a3.563,3.563,0,0,0-.048-.5.181.181,0,0,0-.024-.1h0a.408.408,0,0,0-.024-.167c-.024-.143-.048-.287-.072-.406v-.024a4.781,4.781,0,0,0-.167-.55,2.8,2.8,0,0,0-.215-.574c-.072-.167-.144-.358-.239-.55a6.081,6.081,0,0,0-.311-.526,10.64,10.64,0,0,0-.693-1c-.143-.167-.263-.311-.43-.478l-.454-.454a2.874,2.874,0,0,0-.5-.406c-.167-.119-.359-.239-.526-.382a7.938,7.938,0,0,0-1.482-.765,7.288,7.288,0,0,0-1.553-.478,4.466,4.466,0,0,0-.765-.1c-.167-.024-.335-.024-.5-.048a9.972,9.972,0,0,0-1.195.024c-.12,0-.263.024-.406.024-.072,0-.143.024-.215.024a10.821,10.821,0,0,0-1.195.287c-.143.024-.287.1-.454.143a8.164,8.164,0,0,0-1.769.884l-.024.024c-.024.024-.1.048-.119.072-.143.1-.311.239-.478.358-.12.1-.263.215-.382.311l-.215.215a1.44,1.44,0,0,0-.191.191l-.359.43-.072.072-.359.5-5.688,8.293h0l-3.394,4.971h0l10.3,6.739Z" transform="translate(-1050.565 -728.409)" fill="#4952e6"/>
              <path id="Path_2354" data-name="Path 2354" d="M1153.444,726.514h0l1.571-1.77.623-.673.175-.2.8-.872h0l-2.842-.15c-.2-.025-.4-.025-.573-.05a8.944,8.944,0,0,1-1.122-.224.224.224,0,0,1-.124-.025c-.075-.025-.175-.025-.249-.05h-.025l-.025.125-.1,1.521-.249,4.787v.025l.573-.648Z" transform="translate(-1088.888 -694.069)" fill="#ebb69f"/>
              <path id="Path_2355" data-name="Path 2355" d="M1143.01,655.81l4.9.287.129-9.98-1.078-.073c-.167,0-.771-.027-.938-.051-.383-.048-1.007-.087-1.007-.087s-.5-.1-.96-.217a5.062,5.062,0,0,1-.56-.182c-.263-.119-.651-.234-.89-.378-.191-.12-1.089-.71-1.113-.71-.167-.143-.918-.764-1.014-.883h0c-.024-.024-.048-.072-.1-.12,0-.024-.024-.024-.024-.048a.124.124,0,0,1-.048-.1c-.072-.1-.119-.167-.191-.263l-.024-.048a.519.519,0,0,0-.1-.119.183.183,0,0,1-.048-.12,2.866,2.866,0,0,1-.287-.526c-.1-.215-.215-.43-.287-.645-.024-.1-.072-.191-.1-.287-.048-.167-.1-.311-.143-.478h0c-.024-.167-.072-.335-.1-.5-.048-.287-.1-.6-.12-.884v-.86h0v-.765h.024v-.024l1.219.072h.119a.143.143,0,0,0,.1.024h.048a.179.179,0,0,0,.12-.024h.048a.855.855,0,0,0,.263-.048h.024a.023.023,0,0,0,.024-.024h.1s.048,0,.048-.024a.206.206,0,0,0,.144-.072h0a.074.074,0,0,0,.048-.024.084.084,0,0,1,.048-.024.24.24,0,0,1,.072-.024h0c.1-.072.191-.167.287-.239l.024-.024.048-.048h0c.024-.048.048-.048.072-.1a.988.988,0,0,0,.167-.263l.048-.072a1.261,1.261,0,0,0,.119-.359v-.12a.215.215,0,0,0,.024-.119l.024-.526v-.311a1.368,1.368,0,0,0-.024-.311,1.215,1.215,0,0,0-.048-.311.3.3,0,0,1-.024-.143v-.024a.4.4,0,0,0-.048-.12.339.339,0,0,0-.048-.143.181.181,0,0,1-.024-.1.074.074,0,0,0-.024-.048h0v-.024a.183.183,0,0,0-.048-.119v-.024a.516.516,0,0,1-.072-.119,13.213,13.213,0,0,0-.048-.048c0-.024,0-.024-.024-.024l-.024-.024c-.024-.024-.024-.024-.024-.048s-.024-.024-.024-.048h0v-.024c0-.024-.024-.024-.024-.048s-.024-.024-.048-.048c-.1-.143-.469-.819-.565-.914-.024-.048-.072-.072-.1-.119l-.1-.1h0a2.539,2.539,0,0,0-.263-.215h0c-.1-.048-.191-.12-.311-.191-.024,0-.024-.024-.048-.024a.074.074,0,0,1-.048-.024h-.024a.083.083,0,0,0-.048-.024h0v-.024h-.024c-.048-.024-.072-.024-.1-.048l-.048-.024a.074.074,0,0,1-.048-.024,2.18,2.18,0,0,0-.6-.167h0c-.1,0-.191-.024-.287-.024-.024-.024-.024-.024-.048-.024h-.191l-.789-.024-.789-.048h-.143c-.263-.024-.526-.072-.789-.1a.088.088,0,0,1-.072-.024.3.3,0,0,0-.143-.024.844.844,0,0,1-.263-.072c-.143-.024-.263-.072-.406-.1a.988.988,0,0,1-.191-.072c-.071-.024-.119-.048-.191-.072-.048-.024-.119-.048-.167-.072-.024,0-.048,0-.048-.024l-.144-.048a5.088,5.088,0,0,1-.717-.406,2.1,2.1,0,0,0-.239-.143,5.527,5.527,0,0,1-.454-.335l-.359-.311-.982-.923-4.858-4.619-.621,14.844v.382c0,.263,0,.526.024.765a2.2,2.2,0,0,0,.024.382,7.432,7.432,0,0,0,.335,1.482,5.848,5.848,0,0,0,.239.693c.1.215.191.454.311.693.048.1.1.191.167.311a2.844,2.844,0,0,0,.215.359,2.172,2.172,0,0,0,.191.311,3.546,3.546,0,0,1,.215.311c.143.215.311.382.454.6a8.494,8.494,0,0,0,.789.813,2.539,2.539,0,0,1,.287.239,6.119,6.119,0,0,0,.621.478,5.9,5.9,0,0,0,.645.406h0c.143.072.287.167.454.239a4.691,4.691,0,0,0,.789.359c.286.119.573.215.884.311h.024a.852.852,0,0,0,.239.048.26.26,0,0,1,.119.024,7.791,7.791,0,0,0,1.076.215c.167.024.358.024.55.048l2.725.143h0l-.765.836-.167.191-.6.645-1.506,1.673h0l-1.506,1.7-.55.621h0l-.048.884,5.831.359Z" transform="translate(-1070.275 -619.66)" fill="#f0c6b4"/>
              <path id="Path_2356" data-name="Path 2356" d="M1020.512,991.4c-.143.048-.311.12-.454.167a12.46,12.46,0,0,1-1.338.43,18.371,18.371,0,0,1-1.984.454h0c-.621.119-1.267.215-1.936.311-.454.048-.932.1-1.386.119-.478.024-.956.072-1.41.072-.478.024-.956.024-1.458.024h-.1c-.908.024-1.84,0-2.772-.048-.239-.024-.5-.024-.741-.048-.263-.024-.55-.024-.812-.048-.167,0-.335-.024-.5-.024-.765-.072-1.506-.143-2.246-.239-.287-.024-.573-.048-.86-.1-.143-.024-.287-.024-.43-.048a.74.74,0,0,1-.239-.024c-1.84-.263-3.609-.574-5.21-.884a3.374,3.374,0,0,1-.478-.1c-.645-.119-1.267-.263-1.864-.382-.287-.048-.574-.12-.86-.191-.717-.167-1.362-.311-1.96-.478a6.837,6.837,0,0,0-.669-.167c-.1-.024-.191-.048-.263-.072-.239-.048-.478-.119-.693-.167-.072-.024-.143-.048-.239-.072l-.024-.024h-.024a1.976,1.976,0,0,1-.359-.1c-1-.287-1.6-.478-1.6-.478h0a17.93,17.93,0,0,0-3.011,2.2c-1.6,1.362-3.155,2.8-3.179,2.82v.024c-.12.072-.239.143-.335.215a126.479,126.479,0,0,0-18.33,13.814c-.908.836-1.745,1.673-2.533,2.462-.86.884-1.649,1.721-2.366,2.557a49.625,49.625,0,0,0-3.537,4.517,30.964,30.964,0,0,0-2.987,5.234,20.07,20.07,0,0,0-1.386,4.182,8.447,8.447,0,0,0-.191,2.916.215.215,0,0,0,.024.119,27.447,27.447,0,0,0,1.577,6.477,47.253,47.253,0,0,0,2.557,5.808c.717,1.458,1.506,2.868,2.318,4.254h0a126.516,126.516,0,0,0,11.28,15.94,2.906,2.906,0,0,0,.239.287l7.1-2.772a47.426,47.426,0,0,0-1.314-19.119c-.358-1.2-.717-2.318-1.1-3.346a35.036,35.036,0,0,0-3.872-7.767l5.975-2.8.335-.143.836-.311c1.267-.478,3.274-1.243,6.548-2.438.55-.191,1.123-.43,1.745-.645.908-.335,1.888-.693,2.964-1.1l4.373-1.6c.6-.215,1.2-.454,1.816-.693,2.151-.789,4.541-1.7,7.193-2.677a30.844,30.844,0,0,0,3.011-1.291c.358-.167.693-.334,1.052-.526.191-.1.382-.215.574-.311.406-.215.836-.454,1.219-.693.311-.167.573-.358.86-.55s.574-.358.86-.55l.86-.645c.239-.191.5-.382.741-.574a8.556,8.556,0,0,0,.693-.621c.287-.239.55-.454.813-.693.143-.12.287-.287.43-.406a29.833,29.833,0,0,0,2.223-2.366,31.454,31.454,0,0,0,5.544-10.133,42.926,42.926,0,0,0,1.553-5.927c.072-.358.143-.717.191-1.171,0-.024.024-.048,0-.072l-.215.072A1.044,1.044,0,0,1,1020.512,991.4Z" transform="translate(-935.804 -897.385)" fill="url(#radial-gradient-2)"/>
              <path id="Path_2357" data-name="Path 2357" d="M1142.619,795.854c-.024-1.53-.1-3.035-.191-4.445-.1-1.745-.239-3.394-.359-4.923v-.1c0-.048-.024-.143-.024-.239v-.119h0v-.215l-.024-.12c-.024-.478-.072-.932-.119-1.386-.048-.526-.1-1.028-.12-1.506-.1-.956-.167-1.912-.263-2.844-.048-.5-.1-1-.143-1.482s-.1-.98-.12-1.458c-.024-.191-.024-.382-.048-.574a7.176,7.176,0,0,0-.048-.717c-.072-.956-.167-1.912-.287-2.844v-.072q-.107-.932-.215-1.792c-.024-.287-.072-.6-.1-.86-.048-.311-.072-.6-.143-.884-.024-.191-.048-.359-.072-.55-.024-.239-.072-.454-.1-.669-.048-.335-.1-.669-.167-.98-.048-.311-.1-.621-.167-.908l-.215-1.075c-.072-.359-.167-.717-.239-1.028-.191-.98-.43-1.84-.669-2.653a.088.088,0,0,0-.024-.072c-.072-.263-.167-.55-.239-.789-.311-.98-.621-1.84-.908-2.605a5.445,5.445,0,0,0-.239-.55c-1.266-2.916-2.414-3.943-2.891-4.254a1.417,1.417,0,0,0-.191-.1.033.033,0,0,0-.048,0l-4.9-.311-4.9-.311L1118.5,752h0a1.73,1.73,0,0,0-.143.12l-.024.024a3.2,3.2,0,0,0-.239.263,1.822,1.822,0,0,0-.215.215c-.12.143-.263.287-.406.454-.5.55-1.147,1.314-1.864,2.223-.1.143-.239.311-.359.478-.358.478-.717,1-1.1,1.553-.335.526-.693,1.075-1.028,1.673a32.494,32.494,0,0,0-1.792,3.537l-.143.358a26.16,26.16,0,0,0-1.458,4.565h0l.072.048h0l5.688-8.293.359-.5.072-.072c.119-.143.215-.287.359-.43a1.455,1.455,0,0,0,.191-.191l.215-.215c.12-.1.239-.215.382-.311a3.569,3.569,0,0,1,.478-.358.524.524,0,0,1,.119-.072c.024,0,.024,0,.024-.024a8.156,8.156,0,0,1,1.769-.884,2.506,2.506,0,0,1,.454-.143,9.66,9.66,0,0,1,1.195-.287c.072,0,.144-.024.215-.024a2.184,2.184,0,0,1,.406-.024,9.962,9.962,0,0,1,1.195-.024,3.557,3.557,0,0,1,.5.048,7.405,7.405,0,0,1,.765.1,7.294,7.294,0,0,1,1.554.478,10.839,10.839,0,0,1,1.482.765c.167.119.359.239.526.382.167.119.335.263.5.406s.311.287.454.43h0c.143.143.287.311.43.478a5.776,5.776,0,0,1,.693,1c.1.167.215.359.311.526.1.191.167.382.239.55l.215.574a4.842,4.842,0,0,0,.167.55v.024c.024.12.048.263.072.406a.356.356,0,0,1,.024.167h0a.179.179,0,0,0,.024.1,3.6,3.6,0,0,1,.048.5c.024.191.024.382.048.574a7.974,7.974,0,0,1-.382,2.677c-.072.215-.143.454-.239.669a.074.074,0,0,1-.024.048c-.1.239-.215.454-.334.693a4.177,4.177,0,0,1-.43.693l-5.449,7.934-3.633,5.329h0a.183.183,0,0,1-.072.048,1.965,1.965,0,0,1-.191.143l-.024.024a3.652,3.652,0,0,1-.287.239c-.048.024-.1.072-.143.1-.1.072-.191.143-.311.239a.023.023,0,0,0-.024.024,1.767,1.767,0,0,0-.263.215c-.167.12-.358.287-.573.43a.083.083,0,0,1-.048.024c-.1.072-.215.167-.335.263-.335.263-.717.526-1.1.836a.074.074,0,0,0-.048.024c-.406.311-.86.645-1.314.956-.287.215-.6.43-.908.645a.083.083,0,0,1-.048.024c-.669.454-1.362.932-2.055,1.41-.6.382-1.219.765-1.84,1.171-.478.311-.98.621-1.458.884-.382.239-.765.454-1.147.669h0l.024,7.241.024,11.208s.6.191,1.6.478c.1.024.215.072.359.1h.024c0,.024,0,.024.024.024.072.024.143.048.239.072.215.048.43.12.693.167.072.024.167.048.263.072.215.048.43.1.669.167.6.143,1.243.311,1.96.478.287.072.573.143.86.191.6.12,1.219.263,1.864.382a3.4,3.4,0,0,0,.478.1c1.577.311,3.37.621,5.21.884a.738.738,0,0,0,.239.024c.144.024.287.024.43.048.287.024.573.048.86.1.741.1,1.482.167,2.247.239a3.528,3.528,0,0,0,.5.024c.263.024.549.024.812.048.239,0,.5.024.741.048.932.048,1.864.072,2.772.048h.1c.478,0,.98,0,1.458-.024.478,0,.956-.048,1.41-.072s.932-.072,1.386-.12a16.367,16.367,0,0,0,1.936-.311h0a17.158,17.158,0,0,0,1.984-.454,12.458,12.458,0,0,0,1.338-.43,3.482,3.482,0,0,0,.454-.167c.1-.048.191-.072.311-.12l.215-.072.024-.024c.1-.621.215-1.267.287-1.912.072-.55.143-1.1.191-1.649.072-.574.12-1.147.167-1.721.072-.836.119-1.673.167-2.533.024-.717.048-1.434.048-2.127v-2.079C1142.643,797.647,1142.619,796.763,1142.619,795.854Z" transform="translate(-1056.5 -716.797)" fill="#2930b2"/>
              <path id="Path_2358" data-name="Path 2358" d="M1025.124,1289.22l1.314,3.824c.311-.143.645-.311.956-.454.55-.239,1.075-.478,1.553-.693.191-.1.406-.167.6-.263.1-.048.215-.1.311-.143.167-.072.358-.143.526-.215.263-.12.526-.215.765-.334.167-.072.311-.144.454-.191.287-.144.55-.263.765-.383a1.2,1.2,0,0,1,.167-.072c.048-.024.119-.072.167-.1a4.038,4.038,0,0,0,.406-.263l.024-.024c.119-.1.167-.167.167-.263h0v-.024h0v-.048l-1.1-3.179-7.1,2.772Z" transform="translate(-993.184 -1123.481)" fill="#f0c6b4"/>
              <path id="Path_2359" data-name="Path 2359" d="M1013.366,1300.615a4.126,4.126,0,0,1-.406.263,1.363,1.363,0,0,0-.167.1,1.166,1.166,0,0,1-.167.072c-.215.1-.478.239-.765.383-.143.048-.287.119-.454.191-.239.1-.5.215-.765.335-.167.048-.335.143-.526.215-.1.048-.215.1-.311.144-.191.072-.382.167-.6.263-.5.215-1.027.43-1.553.693-.311.143-.645.311-.956.454-.526.239-1.028.5-1.53.765-.167.1-.358.191-.526.287-.072.048-.167.072-.239.119-.12.072-.215.12-.335.191q-.968.538-1.864,1.147c-.215.143-.406.287-.621.43-.215.167-.43.334-.621.478l-.574.5a5.493,5.493,0,0,0-.526.526,5.014,5.014,0,0,0-.454.55l-.143.215c-.024.048-.024.1-.048.144a.858.858,0,0,0-.048.43,1.205,1.205,0,0,0,.048.287.478.478,0,0,0,.1.191c.048.072.072.12.119.191l.167.167c.072.048.119.072.191.12v.024a2.1,2.1,0,0,0,.359.119,1.763,1.763,0,0,0,.5,0l2.414-.621.311-.072,8.795-2.2,3.155-.789h0l-.813-3.011-.956-3.513h-.024a.371.371,0,0,1-.167.263C1013.414,1300.592,1013.39,1300.592,1013.366,1300.615Z" transform="translate(-973.444 -1134.135)" fill="#191151"/>
              <path id="Path_2360" data-name="Path 2360" d="M935.261,1173.184a51.166,51.166,0,0,1-2.557-5.808,26.327,26.327,0,0,1-1.577-6.476l-5.927,27.723,1.792.359h0l4.923.98.143.024.143.024,5.353-12.571h0C936.767,1176.052,935.978,1174.618,935.261,1173.184Z" transform="translate(-917.159 -1027.974)" fill="#dedede"/>
              <path id="Path_2361" data-name="Path 2361" d="M990.554,813.952c.86-.5,1.673-1.051,2.509-1.553a33.318,33.318,0,0,0,8.341-6.787s-2.677-1.745-3.824-2.509c-3.442-2.247-6.859-4.517-10.324-6.74a38.119,38.119,0,0,0-6.955,7.7c-4.971-3.011-12.069-8.795-18.354-10.731,0,0,.884-3.967.98-4.875.1-.956-2.1.143-2.342.143h-.048v-.287c-.167-1.53-1.745-3.107-2.963-3.943-1.7-1.171-5.473-1.888-5.76,1.075-.263,2.725,1.434,5.449,2.892,7.624a99.883,99.883,0,0,0,12.786,14.913c3.441,3.37,8.436,9.344,13.742,9.105A20.415,20.415,0,0,0,990.554,813.952Z" transform="translate(-937.392 -740.655)" fill="#f0c6b4"/>
              <path id="Path_2362" data-name="Path 2362" d="M936.329,1279.38l-4.923-.98h0l-.024.191-.191,2.079-.191,1.912h5.043l.621-3.131-.143-.024Z" transform="translate(-921.573 -1117.393)" fill="#f0c6b4"/>
              <path id="Path_2363" data-name="Path 2363" d="M905.691,1295.724h-4.756a3.543,3.543,0,0,0-.5.024,6.641,6.641,0,0,1-.693.024c-.311.024-.621.048-.932.048-.072,0-.167.024-.239.024-.741.048-1.53.143-2.294.263a6.613,6.613,0,0,0-.669.119,2.854,2.854,0,0,0-.478.1c-.359.072-.717.167-1.075.263a4.114,4.114,0,0,0-.5.167,10.521,10.521,0,0,0-1.386.573.935.935,0,0,0-.406.335.526.526,0,0,0-.072.119.181.181,0,0,0-.048.1.754.754,0,0,0-.072.215.967.967,0,0,0,0,.263.838.838,0,0,0,.12.478.564.564,0,0,0,.143.215.639.639,0,0,0,.12.143.428.428,0,0,0,.167.119,1.2,1.2,0,0,0,.311.12c.024,0,.048.024.072.024l12.045,2.055.287.048L906,1295.7h0a1.468,1.468,0,0,1-.311.024Z" transform="translate(-891.556 -1130.558)" fill="#191151"/>
            </g>
          </g>
        </g>
        <g id="Group_2129" data-name="Group 2129" transform="translate(221.088 181.487)">
          <g id="Group_1332" data-name="Group 1332" transform="translate(0 15.271)">
            <path id="Path_2364" data-name="Path 2364" d="M779.125,1361.6h.1a5.478,5.478,0,1,1-.1,0Z" transform="translate(-696.698 -1216.056)" fill="#d3d7dc"/>
            <path id="Path_2365" data-name="Path 2365" d="M461.466,1364.184a5.413,5.413,0,1,1-4.636-2.485h.119A5.287,5.287,0,0,1,461.466,1364.184Z" transform="translate(-451.5 -1216.131)" fill="#d3d7dc"/>
            <g id="Group_1331" data-name="Group 1331" transform="translate(5.306)">
              <path id="Path_2366" data-name="Path 2366" d="M620.675,1362.7a5.431,5.431,0,1,1-6.214-.191,5.323,5.323,0,0,1,6.214.191Z" transform="translate(-578.948 -1216.056)" fill="#d3d7dc"/>
              <path id="Path_2367" data-name="Path 2367" d="M515.427,1317.634a3.02,3.02,0,0,0,2.987,3.059h18.713a16.024,16.024,0,0,1,11.5,4.875l2.294,2.342h-.1a5.408,5.408,0,0,0-4.541,2.485c-2.772-2.772-5.736-5.234-9.631-5.234H518.343a2.927,2.927,0,0,0-2.916,2.916v.908a5.36,5.36,0,0,0-6.237-.191v-.717a2.912,2.912,0,0,0-2.916-2.916H487.991c-3.919,0-6.859,2.461-9.631,5.234a5.351,5.351,0,0,0-4.541-2.485h-.12l2.27-2.342a16.175,16.175,0,0,1,11.519-4.875H506.2a3.035,3.035,0,0,0,2.987-3.059v-.334h6.237Z" transform="translate(-473.7 -1182.343)" fill="url(#linear-gradient-26)"/>
              <path id="Path_2368" data-name="Path 2368" d="M498.572,1107.565a3.876,3.876,0,0,1-3.872-3.9V1096.6a4.03,4.03,0,0,1,.621-2.127,3.845,3.845,0,0,1,3.25-1.769h59.437a3.891,3.891,0,0,1,3.9,3.872v7.074a3.9,3.9,0,0,1-3.9,3.9H498.572Z" transform="translate(-489.681 -1011.42)" fill="url(#linear-gradient-27)"/>
              <path id="Path_2369" data-name="Path 2369" d="M574.212,1163.388a8.381,8.381,0,0,1-5.951-2.461A8.283,8.283,0,0,1,565.8,1155h33.219a8.384,8.384,0,0,1-8.389,8.388H574.212Z" transform="translate(-543.789 -1058.831)" fill="url(#linear-gradient-28)"/>
              <path id="Path_2370" data-name="Path 2370" d="M624.575,1246.8v16.849H614.8V1246.8h9.775Z" transform="translate(-581.079 -1128.692)" fill="url(#linear-gradient-29)"/>
              <rect id="Rectangle_538" data-name="Rectangle 538" width="6.644" height="13.551" transform="translate(35.299 104.558)" fill="#001f8e"/>
              <path id="Path_2371" data-name="Path 2371" d="M569.149,774.706h-1.673V755.42a2.825,2.825,0,0,0-2.82-2.82h-47.7a2.825,2.825,0,0,0-2.82,2.82v19.286h-1.673a3.57,3.57,0,0,0-3.561,3.561v45.718a3.57,3.57,0,0,0,3.561,3.561h56.688a3.57,3.57,0,0,0,3.561-3.561V778.291A3.575,3.575,0,0,0,569.149,774.706Z" transform="translate(-500.488 -752.6)" fill="url(#linear-gradient-30)"/>
              <rect id="Rectangle_539" data-name="Rectangle 539" width="24.066" height="6.333" transform="translate(28.177 74.971)" fill="url(#linear-gradient-31)"/>
            </g>
          </g>
          <g id="Group_1335" data-name="Group 1335" transform="translate(17.731)">
            <path id="Path_2372" data-name="Path 2372" d="M680.4,1326.8h0l.072,3.3h0v.072h0c.024.1.1.191.287.287.693.406,2.677.382,5.019.86.1.024.215.048.311.072h0l.072-1.314.143-3.155v-.119h-5.9Z" transform="translate(-643.427 -1174.301)" fill="#f0c6b4"/>
            <path id="Path_2373" data-name="Path 2373" d="M627.675,1340.524h-.311v.072l-.741,3.2-.024.1v.024a.023.023,0,0,1,.024.024.26.26,0,0,0,.024.12.083.083,0,0,1,.024.048,11.8,11.8,0,0,0,3.035,1.816c.6.311,1.267.621,1.936.98h.024l1.673-5.019.454-1.386h-6.118Z" transform="translate(-602.485 -1184.727)" fill="#f0c6b4"/>
            <path id="Path_2374" data-name="Path 2374" d="M625.479,1357.787c-.693-.358-1.338-.693-1.936-.98a11.8,11.8,0,0,1-3.035-1.816c-.024-.024-.024-.024-.024-.048a.214.214,0,0,1-.024-.119l-.024-.024-1.888,7.433-.048.167v.024l3.417.908h0l1-2.629.693,3.107,8.389,2.27c.1,0,.167.024.263.024.024,0,.048-.024.1-.024h.048a.857.857,0,0,0,.263-.1c.024,0,.024,0,.048-.024a1.061,1.061,0,0,0,.263-.191h0a1.254,1.254,0,0,0,.263-.334,1.192,1.192,0,0,0,.12-.311v-.024a1.866,1.866,0,0,0,.048-.383h0a1.4,1.4,0,0,0-.191-.765,11.117,11.117,0,0,0-1.267-1.577,2.87,2.87,0,0,0-.263-.287c-.167-.167-.358-.334-.526-.478-.143-.12-.263-.263-.43-.382-.191-.144-.382-.287-.574-.454a5.306,5.306,0,0,0-.43-.334c-.239-.167-.5-.334-.717-.5a2.934,2.934,0,0,1-.335-.239l-.932-.573a.506.506,0,0,1-.143-.1c-.335-.191-.693-.382-1-.573-.024,0-.048-.024-.072-.048-.239-.12-.478-.263-.717-.383a.931.931,0,0,0-.335-.239Z" transform="translate(-596.32 -1195.61)" fill="url(#linear-gradient-32)"/>
            <path id="Path_2375" data-name="Path 2375" d="M686.106,1342.071c-2.342-.478-4.326-.454-5.019-.86q-.251-.144-.287-.287h0v-.024l.048,7.409v.1l3.537.024v-.024l.311-2.8,1.482,2.82,8.675.048a.958.958,0,0,0,.359-.072h.024c.072-.024.12-.072.191-.1l.048-.048c.024,0,.024-.024.048-.048a1.313,1.313,0,0,0,.167-.215c0-.024.024-.048.048-.072.024-.048.048-.072.072-.12a.179.179,0,0,0,.024-.12,1.019,1.019,0,0,0,.024-.119.979.979,0,0,0,.024-.263v-.143a.981.981,0,0,0-.024-.263,1.041,1.041,0,0,0-.024-.119,1.351,1.351,0,0,0-.1-.287.5.5,0,0,0-.1-.143c-.048-.048-.072-.144-.143-.191l-.1-.1c-2.127-1.983-5.568-3.011-8.484-3.68-.167-.048-.358-.1-.526-.143h0A.454.454,0,0,0,686.106,1342.071Z" transform="translate(-643.731 -1185.032)" fill="url(#linear-gradient-33)"/>
            <g id="Group_1333" data-name="Group 1333" transform="translate(24.163 81.232)">
              <path id="Path_2376" data-name="Path 2376" d="M633.324,1172.4a37.856,37.856,0,0,1-4.923-3.9l-.072-.071c-.287-.263-.574-.55-.836-.837-.215-.215-.454-.454-.669-.693h0l-.024,41.536h7.958l2.724-7.767v-.024C634.687,1186.9,633.324,1172.54,633.324,1172.4Z" transform="translate(-626.8 -1133.848)" fill="#dedede"/>
              <path id="Path_2377" data-name="Path 2377" d="M659.2,1028.6s3.609,10.109,7.958,20.123c0,0,1.721,4.326,2.868,7.361h0a20.144,20.144,0,0,1,.717,1.984c.1.263.143.478.191.621a14.972,14.972,0,0,1,.717,3.776,6.832,6.832,0,0,0,1-.693.023.023,0,0,0,.024-.024,9.923,9.923,0,0,0,.908-.836c.048-.048.1-.12.143-.167a15.467,15.467,0,0,0,1.506-2.031,25.583,25.583,0,0,0,2.294-5.043l.072-.215a47.64,47.64,0,0,0,1.553-5.879c.358-1.745.765-18.952.765-18.952H659.2Z" transform="translate(-651.457 -1028.6)" fill="#dedede"/>
            </g>
            <path id="Path_2378" data-name="Path 2378" d="M605.092,1058.167c-.167-.5-.43-1.195-.717-1.984h0c-1.147-3.011-2.868-7.361-2.868-7.361-4.349-10.014-7.958-20.123-7.958-20.123h-20.6a37.874,37.874,0,0,0,1.315,11.065,58.266,58.266,0,0,0,2.629,7.886,47.273,47.273,0,0,0,2.868,5.879l.143.215a44.089,44.089,0,0,0,3.37,5.042c.86,1.075,1.673,2.031,2.509,2.916h0c.215.239.454.454.669.693l.836.837.072.072a33.284,33.284,0,0,0,4.923,3.9c0,.143,1.386,14.53,4.135,28.248v.024c.311,1.506.621,2.963.956,4.469h8.58c0-.311.478-30.28,0-37.378a16.11,16.11,0,0,0-.717-3.776A2,2,0,0,0,605.092,1058.167Z" transform="translate(-561.642 -947.444)" fill="url(#radial-gradient-3)"/>
            <path id="Path_2379" data-name="Path 2379" d="M671.975,801.915H670.9l1.673,2.079,3.059,3.824V801.7l-.43.072a8.879,8.879,0,0,1-1.6.143Z" transform="translate(-636.197 -774.694)" fill="#ebb69f"/>
            <path id="Path_2380" data-name="Path 2380" d="M602.636,713.555l2.366-.024h.239c.072,0,.143-.024.239-.024h.167a.259.259,0,0,0,.12-.024,4.329,4.329,0,0,0,.741-.119c.239-.048.5-.12.741-.191a5.919,5.919,0,0,0,.693-.239,2.476,2.476,0,0,0,.239-.1l.143-.072a3.325,3.325,0,0,0,.406-.215c.072-.048.526-.311.526-.311a3.359,3.359,0,0,0,.43-.311c.024,0,.048-.024.072-.048s.048-.024.072-.048c.191-.167.359-.335.55-.5a7.478,7.478,0,0,0,1.649-2.39c0-.024.024-.048.024-.072v-.024a.023.023,0,0,0,.024-.024h-.143a2.046,2.046,0,0,1-2.055-2.007,1.994,1.994,0,0,1,.884-1.649.181.181,0,0,1-.1-.024l-.1-.048a1.612,1.612,0,0,1-.574-.382c-.048-.048-.1-.12-.143-.167l-.072-.1a.748.748,0,0,1-.12-.239l-.024-.024c0-.024,0-.024-.024-.048h0a.256.256,0,0,1-.048-.143,1.082,1.082,0,0,0-.072-.263v-.789a2.685,2.685,0,0,1,.1-.765c.024-.072.024-.167.048-.263a3.672,3.672,0,0,1,.191-.454,4.435,4.435,0,0,1,.263-.454,2.815,2.815,0,0,1,.43-.5c.143-.143.335-.287.5-.43a3.566,3.566,0,0,1,.6-.311l.167-.048.143-.048c.143-.024.287-.072.454-.1a5.051,5.051,0,0,1,.6-.048h1.768a6.953,6.953,0,0,0,.741-.024c.024,0,.024-.024.048-.024a1.406,1.406,0,0,0,.335-.048l.358-.072c.143-.048.335-.072.5-.119.072-.024.167-.048.263-.072h0c.143-.048.287-.12.454-.191.143-.048.263-.143.43-.215.024,0,.048-.024.072-.024a.088.088,0,0,1,.072-.024c.191-.12.358-.215.526-.335a1.453,1.453,0,0,0,.239-.167c.072-.048.143-.1.239-.167l6.238-5.21h0l1.267-1.075a1.9,1.9,0,0,0,.693-1.553,1.928,1.928,0,0,0-.884-1.506H606.794a11.283,11.283,0,0,0-2.031.167h-.072c-.263.072-.55.12-.813.191-.024,0-.072.024-.1.024a7.166,7.166,0,0,0-.765.263.088.088,0,0,0-.072.024,6.994,6.994,0,0,0-.741.335h-.024a9.826,9.826,0,0,0-4.134,4.23,7.733,7.733,0,0,1-.406.765v.048c-.119.239-.239.526-.358.789h0c-.215.55-.43,1.1-.621,1.721a31.917,31.917,0,0,0-1.123,7.026.738.738,0,0,0-.024.239,2.184,2.184,0,0,1-.024.406c-.072,2.031-.024,3.9.072,5.377v.024a1.361,1.361,0,0,0,.024.311v.335a26.747,26.747,0,0,0,.287,2.7h6.763v-.119Z" transform="translate(-578.783 -688.7)" fill="#171721"/>
            <path id="Path_2381" data-name="Path 2381" d="M656,758.084a2.046,2.046,0,0,0,2.055,2.008h.143a2,2,0,0,0-.143-3.991,2.051,2.051,0,0,0-1.171.358A1.92,1.92,0,0,0,656,758.084Z" transform="translate(-624.858 -739.992)" fill="#fdfdfd"/>
            <path id="Path_2382" data-name="Path 2382" d="M625.4,735.436h0l5.449,4.254,2.7,2.1h0l.119.072,2.8-2.462v.024l4.493-3.943h0l.048-.048v-.024h.024l-.024-.956-3.059-3.824-1.673-2.079h2.7a8.871,8.871,0,0,0,1.6-.143l.43-.072a8.011,8.011,0,0,0,1.482-.454,7.675,7.675,0,0,0,1.577-.837,9.33,9.33,0,0,0,1-.765c.143-.12.311-.263.454-.406.287-.287.55-.621.813-.932a8.91,8.91,0,0,0,.693-1.052c.072-.119.119-.239.191-.358l.1-.191a9.368,9.368,0,0,0,.574-1.625c.024-.167.072-.335.1-.5a7.9,7.9,0,0,0,.144-1.53V705.3h0l-6.238,5.21a1215.323,1215.323,0,0,0-.478.335,5.068,5.068,0,0,1-.526.334.118.118,0,0,0-.072.024c-.024,0-.048.024-.072.024-.1.048-.215.119-.335.191-.024,0-.048.024-.072.024-.143.072-.287.119-.454.191h0c-.1.024-.191.048-.263.072a3.815,3.815,0,0,1-.5.12l-.359.072a1.872,1.872,0,0,0-.335.048c-.024,0-.024.024-.048.024-.239.024-.478.024-.741.024H635.82a5.023,5.023,0,0,0-.6.048,3.868,3.868,0,0,0-.454.1l-.143.048-.167.048a3.572,3.572,0,0,0-.6.311,4.331,4.331,0,0,0-.5.43,2.816,2.816,0,0,0-.43.5c-.1.143-.167.287-.263.454a2.341,2.341,0,0,0-.191.454c-.024.1-.024.167-.048.263a3.934,3.934,0,0,0-.1.765v.789c.024.048.048.215.072.263a.34.34,0,0,0,.048.143h0c0,.024,0,.024.024.048a.023.023,0,0,0,.024.024.746.746,0,0,0,.12.239l.072.1c.048.048.1.12.143.167a2.006,2.006,0,0,0,.574.382l.1.048a.144.144,0,0,1,.1.024,2.182,2.182,0,0,1,1.171-.359,2,2,0,0,1,.143,3.991h0a.023.023,0,0,1-.024.024v.024a.105.105,0,0,0-.024.072,7.755,7.755,0,0,1-1.649,2.39c-.167.167-.358.334-.55.5-.024.024-.048.048-.072.048s-.048.024-.072.048a3.368,3.368,0,0,1-.43.311s-.43.263-.526.311c-.119.072-.263.143-.406.215l-.143.072a2.445,2.445,0,0,1-.239.1,5.915,5.915,0,0,1-.693.239c-.239.072-.5.143-.741.191-.263.048-.5.1-.741.12a.179.179,0,0,0-.119.024h-.167c-.1,0-.167.024-.239.024h-.239l-2.366.024h0l-.072,9.44Z" transform="translate(-601.571 -701.333)" fill="#f0c6b4"/>
            <path id="Path_2383" data-name="Path 2383" d="M787.248,881.773a1.278,1.278,0,0,0-.741-1.123,1.746,1.746,0,0,0-.86,0,21.8,21.8,0,0,0-6.811,2.581c.239-.717.5-1.434.741-2.151.072-.215.143-.526-.048-.669s-.454,0-.645.143a9.137,9.137,0,0,0-2.414,2.82l-1.219,2.175-.884.813c-13.336,6.07-28.249,16.012-28.249,16.012l-.741-3.3H732.4s.382,7.218,3.489,11.663c1.362,1.96,1.458,3.394,5.162,3.394,17.446,0,34.247-19.382,40.461-26.313.693-.406,1.41-.813,2.1-1.243a10.715,10.715,0,0,0,2.581-1.888A3.57,3.57,0,0,0,787.248,881.773Z" transform="translate(-683 -834.549)" fill="#f0c6b4"/>
            <path id="Path_2384" data-name="Path 2384" d="M628.782,831.348l-4.517,3.943h0l-2.772,2.438-.12-.048v-.024l-2.7-2.1-5.449-4.254v.024h0l-1.219,2.175-2.6,4.756,2.2-.1,3.943-.215h0v5.688h10.922l.024-5.425v-.263h0l3.943.215,2.2.1-2.6-4.756-1.195-2.175-.048.048Z" transform="translate(-589.395 -797.22)" fill="#4952e6"/>
            <g id="XMLID_1_" transform="translate(30.473 34.08)">
              <path id="Path_2385" data-name="Path 2385" d="M679.943,841.457a15.106,15.106,0,0,1,.741,2.294,4.573,4.573,0,0,0-1.076-.12,5.434,5.434,0,0,0-1.888.334h-.048c-.12.048-.215.072-.311.12-.024,0-.072.024-.1.024-.1.048-.215.1-.311.143a2.577,2.577,0,0,1-.263.143c-.048.024-.12.072-.167.1a1.445,1.445,0,0,0-.239.167c-.048.024-.072.048-.12.072a2.56,2.56,0,0,1-.263.215.329.329,0,0,1-.1.072,2.839,2.839,0,0,0-.287.263c-.024,0-.024.024-.048.048a10.172,10.172,0,0,0-1,1.171h0a3.25,3.25,0,0,1-.287.406.522.522,0,0,0-.072.12c-.072.143-.143.263-.239.43a2.205,2.205,0,0,1-.12.191c-.072.144-.143.287-.215.454-.024.072-.072.143-.1.215-.1.215-.215.454-.311.717a2.839,2.839,0,0,0-.191.478c-.048.1-.072.239-.12.358-.072.167-.12.335-.191.526a2,2,0,0,0-.1.358c-.072.215-.119.43-.191.645-.024.1-.048.215-.072.311-.072.287-.12.574-.191.86-.024.072-.024.12-.048.191a44.106,44.106,0,0,0-.789,8.843h.956s.382,7.217,3.489,11.663h0l-.335,5.043H664.91c0-4.182-6.572-2.079-6.572-2.079S655.9,875.2,653.2,874.1l1.721.645V843.632h4.995v-5.688h0l3.943.215,2.2.1-2.6-4.756-1.195-2.175h0V831.3h2.605a14.156,14.156,0,0,1,2.844.263c.359.048.693.143,1.028.215.1.024.191.024.287.048a16.455,16.455,0,0,1,9.679,7.122c0,.024.024.024.024.048.215.335.406.669.6,1a.716.716,0,0,0,.1.191,10.862,10.862,0,0,1,.5,1.076C679.871,841.338,679.919,841.409,679.943,841.457Zm-21.7,9.727a1.072,1.072,0,0,0-1.1-1.052,1.051,1.051,0,0,0-1.075,1.052,1.088,1.088,0,0,0,2.175,0Zm0,6.5a1.087,1.087,0,0,0-1.1-1.052,1.053,1.053,0,1,0,1.1,1.052Zm0,6.309a1.087,1.087,0,0,0-1.1-1.052,1.053,1.053,0,1,0,1.1,1.052Zm0,6.285a1.087,1.087,0,0,0-1.1-1.052,1.066,1.066,0,0,0-1.075,1.052,1.087,1.087,0,0,0,2.175,0Z" transform="translate(-653.2 -831.3)" fill="#2930b2"/>
              <g id="Group_1334" data-name="Group 1334" transform="translate(2.891 18.832)">
                <path id="Path_2386" data-name="Path 2386" d="M666.373,990a1.064,1.064,0,1,1,0,2.127,1.071,1.071,0,0,1-1.075-1.076A1.051,1.051,0,0,1,666.373,990Z" transform="translate(-665.297 -970.905)" fill="#001f8e"/>
                <path id="Path_2387" data-name="Path 2387" d="M666.373,910.1a1.072,1.072,0,0,1,1.1,1.052,1.087,1.087,0,0,1-1.1,1.052,1.066,1.066,0,0,1-1.075-1.052A1.037,1.037,0,0,1,666.373,910.1Z" transform="translate(-665.297 -910.1)" fill="#001f8e"/>
                <path id="Path_2388" data-name="Path 2388" d="M666.373,937.3a1.087,1.087,0,0,1,1.1,1.052,1.088,1.088,0,0,1-2.175,0A1.051,1.051,0,0,1,666.373,937.3Z" transform="translate(-665.297 -930.799)" fill="#001f8e"/>
                <path id="Path_2389" data-name="Path 2389" d="M666.373,963.7a1.087,1.087,0,0,1,1.1,1.051,1.088,1.088,0,0,1-2.175,0A1.051,1.051,0,0,1,666.373,963.7Z" transform="translate(-665.297 -950.89)" fill="#001f8e"/>
              </g>
            </g>
            <path id="Path_2390" data-name="Path 2390" d="M547.969,844.138h.12a6.257,6.257,0,0,1,1.314.287c.024,0,.024,0,.048.024a1.461,1.461,0,0,1,.287.12c.024,0,.048.024.072.024a3.313,3.313,0,0,1,.311.143,2.086,2.086,0,0,0,.239.143,1.381,1.381,0,0,1,.167.1c.072.048.143.1.239.167a.525.525,0,0,0,.12.072c.072.048.167.12.263.191l.072.072a2.614,2.614,0,0,1,.263.239l.048.048a10.773,10.773,0,0,1,.932,1.075v.024a3.655,3.655,0,0,0,.263.382.527.527,0,0,1,.072.12c.072.12.143.239.215.382.024.048.072.119.1.167.072.143.143.263.215.406.024.072.072.143.1.215.1.215.191.43.287.693.072.143.119.287.191.454a2.87,2.87,0,0,0,.12.335c.048.167.119.311.167.5.024.1.072.215.1.335.048.191.12.406.167.6l.072.287c.048.263.12.526.191.789,0,.072.024.119.024.191a40.855,40.855,0,0,1,.741,8.293v.024l.574,8.651s3.728.621,8.149,1.816c.645.144,1.219.287,1.673.382l1.434.526c1.267.406,2.533.86,3.752,1.338.382.167.765.311,1.147.454l.215.072,1.721.621V843.708h-.86l-4.851.024h-.239v-5.688h0l-3.943.215-2.2.1,2.6-4.756,1.219-2.175V831.4h-2.629a14.157,14.157,0,0,0-2.844.263c-.359.048-.693.143-1.028.215-.1.024-.191.024-.287.048a16.455,16.455,0,0,0-9.679,7.122c0,.024-.024.024-.024.048-.215.335-.406.669-.6,1-.024.072-.072.12-.1.191l-.5,1.075c-.024.048-.048.12-.072.167a15.453,15.453,0,0,0-.812,2.581h.263A2.174,2.174,0,0,1,547.969,844.138Z" transform="translate(-542.136 -797.296)" fill="#2930b2"/>
            <path id="Path_2391" data-name="Path 2391" d="M735.177,882.954h-.048c-.12.048-.215.072-.311.12-.024,0-.072.024-.1.024-.1.048-.215.1-.311.143a2.642,2.642,0,0,1-.263.144c-.048.024-.119.072-.167.1a1.456,1.456,0,0,0-.239.167c-.048.024-.072.048-.12.072a2.535,2.535,0,0,1-.263.215.327.327,0,0,1-.1.072,2.876,2.876,0,0,0-.287.263c-.024,0-.024.024-.048.048a10.172,10.172,0,0,0-1,1.171h0a3.24,3.24,0,0,1-.287.406.525.525,0,0,0-.072.12c-.072.144-.143.263-.239.43a2.219,2.219,0,0,1-.119.191c-.072.143-.143.287-.215.454-.024.072-.072.143-.1.215-.1.215-.215.454-.311.717a2.852,2.852,0,0,0-.191.478c-.048.1-.072.239-.12.358-.072.167-.119.334-.191.526a2.015,2.015,0,0,0-.1.359c-.072.215-.119.43-.191.645-.024.1-.048.215-.072.311-.072.287-.12.574-.191.861-.024.072-.024.119-.048.191a44.1,44.1,0,0,0-.789,8.842h14.674s0-14.2-5.019-17.566a.023.023,0,0,0-.024-.024,2.229,2.229,0,0,0-.1-.382,4.57,4.57,0,0,0-1.075-.12A11.654,11.654,0,0,0,735.177,882.954Z" transform="translate(-680.184 -836.184)" fill="#4952e6"/>
            <path id="Path_2392" data-name="Path 2392" d="M560.345,972.97h10.181c0-4.182-6.572-2.079-6.572-2.079s-2.414-1-5.353-2.2c-.382-.143-.765-.311-1.147-.454-1.219-.5-2.485-.932-3.752-1.338-1.051-.334-2.1-.645-3.131-.908-4.445-1.195-8.15-1.816-8.15-1.816l-.573-8.651V955.5H529.3c.024,1.816.5,17.494,8.747,17.494h22.3Z" transform="translate(-528.438 -891.738)" fill="#f0c6b4"/>
            <path id="Path_2393" data-name="Path 2393" d="M529.184,901.772H539.1a42.652,42.652,0,0,0-.741-8.293c0-.048-.024-.12-.024-.191-.072-.263-.12-.526-.191-.789l-.072-.287a5.6,5.6,0,0,0-.167-.6c-.024-.12-.072-.239-.1-.335a3.09,3.09,0,0,0-.167-.5,1.871,1.871,0,0,0-.12-.335,2.6,2.6,0,0,0-.191-.454c-.1-.239-.191-.478-.287-.693a1.9,1.9,0,0,1-.1-.215c-.072-.143-.143-.263-.215-.406-.024-.048-.072-.119-.1-.167-.072-.143-.144-.263-.215-.382a.52.52,0,0,0-.072-.12c-.1-.119-.167-.263-.263-.382V887.6a8.622,8.622,0,0,0-.932-1.076c0-.024-.024-.024-.048-.048a2.629,2.629,0,0,0-.263-.239l-.072-.072a1.822,1.822,0,0,0-.263-.191c-.048-.024-.072-.048-.12-.072-.072-.048-.143-.1-.239-.167a1.039,1.039,0,0,0-.167-.1c-.072-.048-.167-.1-.239-.143-.1-.048-.191-.1-.311-.143-.024,0-.048-.024-.072-.024-.1-.048-.191-.072-.287-.12-.024,0-.024-.024-.048-.024a5.949,5.949,0,0,0-1.314-.287h-.12a2.586,2.586,0,0,0-.621.1.144.144,0,0,0,.024-.1,2.772,2.772,0,0,0-.789.1c-4.732,3.489-4.517,16.825-4.517,16.825h3.489Z" transform="translate(-525.694 -838.01)" fill="#4952e6"/>
          </g>
        </g>
        <g id="Group_2130" data-name="Group 2130" transform="translate(88.354 246.684)">
          <path id="Path_2394" data-name="Path 2394" d="M182.084,964.3H-97.7l1.577-2.8H180.363Z" transform="translate(99.182 -961.5)" fill="url(#radial-gradient-4)"/>
          <rect id="Rectangle_540" data-name="Rectangle 540" width="282.747" height="4.66" transform="translate(0 2.796)" fill="#d3d7dc"/>
          <g id="Group_1337" data-name="Group 1337" transform="translate(37.234 7.433)">
            <rect id="Rectangle_541" data-name="Rectangle 541" width="5.067" height="108.286" transform="translate(0)" fill="url(#linear-gradient-34)"/>
            <rect id="Rectangle_542" data-name="Rectangle 542" width="5.067" height="108.286" transform="translate(203.212)" fill="url(#linear-gradient-35)"/>
          </g>
        </g>
        <g id="Group_2131" data-name="Group 2131" transform="translate(128.79 165.427)">
          <g id="Group_1341" data-name="Group 1341" transform="translate(0)">
            <path id="Path_2395" data-name="Path 2395" d="M121.008,654.7H65.874a.581.581,0,0,1-.574-.573V622.074a.582.582,0,0,1,.574-.574h55.135a.582.582,0,0,1,.574.574v32.048A.552.552,0,0,1,121.008,654.7Z" transform="translate(-65.3 -621.5)" fill="url(#linear-gradient-36)"/>
            <rect id="Rectangle_543" data-name="Rectangle 543" width="45.886" height="27.579" transform="translate(3.298 2.796)" fill="#e6e6e6"/>
            <g id="Group_1340" data-name="Group 1340" transform="translate(10.366 2.055)">
              <path id="Path_2396" data-name="Path 2396" d="M261.263,1350.6h0l-.072,3.776v.072c0,.024,0,.024-.024.024v.024a.516.516,0,0,1-.311.335c-.812.454-3.059.43-5.736.98l-.359.072-.024-.024-.072-1.482-.167-3.609v-.167h6.763Z" transform="translate(-219.649 -1178.409)" fill="#f0c6b4"/>
              <path id="Path_2397" data-name="Path 2397" d="M316.55,1366.4h.358v.119l.836,3.657.024.1v.024l-.024.024a.994.994,0,0,0-.048.143l-.048.048a13.687,13.687,0,0,1-3.465,2.055c-.693.359-1.434.717-2.223,1.123v.024h-.024L310.026,1368l-.526-1.577v-.024Z" transform="translate(-261.505 -1190.432)" fill="#f0c6b4"/>
              <path id="Path_2398" data-name="Path 2398" d="M291.006,1386.094c.789-.406,1.53-.789,2.223-1.123a14.464,14.464,0,0,0,3.465-2.055c.024-.024.024-.048.048-.048.024-.048.024-.1.048-.144a.023.023,0,0,1,.024-.024l2.151,8.46.048.191v.024l-3.9,1.052h-.024l-1.147-3.011-.813,3.561-9.56,2.605a1.2,1.2,0,0,1-.287.048c-.024,0-.072-.024-.1-.024h-.072a1.527,1.527,0,0,1-.311-.1.074.074,0,0,0-.048-.024,1.534,1.534,0,0,1-.311-.239.023.023,0,0,1-.024-.024,1.6,1.6,0,0,1-.287-.382c-.048-.1-.1-.239-.143-.359l-.024-.024a1.39,1.39,0,0,1-.072-.454v-.024a1.64,1.64,0,0,1,.239-.884,12.773,12.773,0,0,1,1.458-1.816c.1-.1.191-.215.287-.311.191-.191.406-.382.6-.55.167-.143.311-.287.478-.43l.645-.5a3.952,3.952,0,0,1,.5-.382c.287-.191.574-.382.836-.573a2.171,2.171,0,0,0,.382-.263c.358-.239.717-.454,1.075-.669a1.029,1.029,0,0,1,.167-.1c.382-.239.789-.454,1.147-.645a.124.124,0,0,1,.1-.048c.287-.143.55-.287.813-.43a1.15,1.15,0,0,1,.382-.287Z" transform="translate(-240.501 -1202.837)" fill="#ff1a46"/>
              <path id="Path_2399" data-name="Path 2399" d="M221.2,1367.962c2.677-.55,4.923-.526,5.736-.98a.516.516,0,0,0,.311-.334v-.024c.024,0,.024,0,.024-.024l-.048,8.436v.119l-4.039.024-.024-.024-.358-3.2-1.7,3.227-9.894.072a1.255,1.255,0,0,1-.406-.1c-.024,0-.024,0-.048-.024-.072-.048-.143-.072-.215-.12l-.072-.072c-.024-.024-.048-.048-.072-.048a1.066,1.066,0,0,1-.191-.263c-.024-.024-.024-.048-.048-.1l-.072-.143a.3.3,0,0,1-.024-.144.255.255,0,0,1-.048-.143,1.21,1.21,0,0,1-.048-.311c-.024-.048,0-.1,0-.167a1.363,1.363,0,0,1,.024-.311c.024-.048.024-.1.048-.143a.836.836,0,0,1,.119-.311c.024-.048.072-.1.12-.167a.751.751,0,0,1,.167-.215l.1-.1c2.438-2.247,6.333-3.441,9.655-4.206a5.517,5.517,0,0,0,.6-.167l.024.024A.994.994,0,0,0,221.2,1367.962Z" transform="translate(-185.751 -1190.585)" fill="#ff1a46"/>
              <g id="Group_1339" data-name="Group 1339" transform="translate(23.666 90.935)">
                <path id="Path_2400" data-name="Path 2400" d="M254.9,1010.6H207.7s.478,19.645.884,21.629a61.717,61.717,0,0,0,1.769,6.692c.024.1.048.167.072.263a29.634,29.634,0,0,0,2.629,5.76,17.93,17.93,0,0,0,1.721,2.294,1.192,1.192,0,0,1,.167.191c.335.358.693.645,1.028.956.024,0,.024.024.048.048a10.95,10.95,0,0,0,1.147.789c-.55,8.078,0,42.277,0,42.636l.024.024h1.673v-.024h6.763v.024h1.362c.382-1.7.741-3.37,1.1-5.09l3.107,8.843v.024h.908v-.024h7.337v.024h.836l-.024-47.368c.956-1.028,1.888-2.079,2.868-3.322a51.38,51.38,0,0,0,3.848-5.76c.048-.072.1-.167.167-.263a61.269,61.269,0,0,0,3.274-6.692,68.308,68.308,0,0,0,3.011-8.986A44.379,44.379,0,0,0,254.9,1010.6Z" transform="translate(-207.7 -1010.6)" fill="url(#linear-gradient-37)"/>
              </g>
              <path id="Path_2401" data-name="Path 2401" d="M275.258,752.063H276.5l-1.912,2.366-3.489,4.35V751.8a1.656,1.656,0,0,0,.478.072,11.394,11.394,0,0,0,1.816.167h1.864Z" transform="translate(-232.282 -722.715)" fill="#ebb69f"/>
              <path id="Path_2402" data-name="Path 2402" d="M263.082,676.319h0l-6.214,4.828-3.059,2.39v.024l-.143.072-3.179-2.8v.024l-5.138-4.493-.024.024-.048-.048.024-.024h-.024l.048-1.075,3.489-4.35,1.912-2.366h-3.083a11.407,11.407,0,0,1-1.816-.167,3.363,3.363,0,0,1-.478-.1,9.719,9.719,0,0,1-3.513-1.458,9.248,9.248,0,0,1-1.147-.884,4.765,4.765,0,0,1-.526-.478c-.311-.311-.621-.693-.932-1.075a8.62,8.62,0,0,1-.789-1.2c-.072-.143-.143-.287-.215-.406l-.1-.215a8.189,8.189,0,0,1-.645-1.864,4.885,4.885,0,0,1-.119-.574,10.282,10.282,0,0,1-.167-1.745V647.114l.024-3.059V642l7.122,5.927a1.829,1.829,0,0,0,.263.191,1.062,1.062,0,0,0,.263.191,6.5,6.5,0,0,0,.6.382c.024.024.048.024.072.048s.048.024.072.048c.12.072.263.143.382.215a.144.144,0,0,0,.1.024l.5.215.024.024a1.548,1.548,0,0,0,.311.1,5.051,5.051,0,0,0,.574.143c.143.024.287.072.406.1a2.09,2.09,0,0,0,.382.048c.024,0,.048.024.072.024.263.024.526.048.86.048h2.008a6.821,6.821,0,0,1,.693.072c.167.024.335.072.5.1l.167.072.191.072a3.2,3.2,0,0,1,.693.359c.191.167.406.311.574.478a3.754,3.754,0,0,1,.5.574l.287.5a5.1,5.1,0,0,1,.239.526l.072.287a3.519,3.519,0,0,1,.1.86v.741a.355.355,0,0,0-.024.143,1.891,1.891,0,0,0-.072.311c-.024.072-.048.1-.072.167V655a.088.088,0,0,0-.024.072.083.083,0,0,1-.024.048.806.806,0,0,1-.143.287l-.1.1a.642.642,0,0,1-.167.191,2.53,2.53,0,0,1-.645.43l-.1.048a.181.181,0,0,1-.1.024,2.308,2.308,0,1,0-1.506,4.158l.024.024c-.024.024,0,.024.024.048v.024c.024.024.024.048.048.072a8.548,8.548,0,0,0,1.888,2.725c.191.191.406.382.621.574.024.024.072.048.1.072a.182.182,0,0,0,.1.048,4.546,4.546,0,0,0,.5.359s.5.311.6.358a2.724,2.724,0,0,0,.454.239l.167.072a.881.881,0,0,0,.263.119c.263.1.526.215.789.287.287.1.574.167.836.239.311.072.574.1.86.143a.3.3,0,0,0,.143.024h.191c.1,0,.191.024.287.024a.181.181,0,0,0,.1.024h.167l2.7.024h.048l-.1,10.468Z" transform="translate(-206.484 -639.156)" fill="#f0c6b4"/>
              <path id="Path_2403" data-name="Path 2403" d="M108.7,735.609a1.483,1.483,0,0,1,.836-1.267,2.369,2.369,0,0,1,1,0,24.712,24.712,0,0,1,7.767,2.94c-.287-.813-.574-1.625-.836-2.462-.1-.263-.167-.6.072-.741.215-.167.5,0,.717.167a10.832,10.832,0,0,1,2.772,3.2l1.386,2.486,1,.932c12.642,21.1-.693,29.157-.693,29.157l.836-3.776h14.817s-.43,8.245-3.967,13.312c-1.553,2.247-1.673,3.872-5.9,3.872-19.908,0-6.118-32.98-13.24-40.891-.813-.478-1.6-.932-2.39-1.41a12.584,12.584,0,0,1-2.94-2.151A4.242,4.242,0,0,1,108.7,735.609Z" transform="translate(-108.675 -709.177)" fill="#f0c6b4"/>
              <path id="Path_2404" data-name="Path 2404" d="M254.674,832.624H204.2v-55.3A3.33,3.33,0,0,1,207.522,774h43.83a3.33,3.33,0,0,1,3.322,3.322Z" transform="translate(-181.371 -739.609)" fill="#2930b2"/>
              <path id="Path_2405" data-name="Path 2405" d="M252.574,630.172h0a12.1,12.1,0,0,0-1.314-.072h-2.892a11.776,11.776,0,0,0-1.314.072H232.141s-2.079,4.23,5.306,6.644a12.021,12.021,0,0,0-1.338,5.544v16.705a.154.154,0,0,0,.143.143h27.125a.154.154,0,0,0,.143-.143V642.36A12.331,12.331,0,0,0,252.574,630.172Z" transform="translate(-202.428 -630.1)" fill="#171721"/>
              <path id="Path_2406" data-name="Path 2406" d="M195.685,774.055s-25.285-2.127-25.285,22.7h23.325Z" transform="translate(-155.648 -739.617)" fill="#2930b2"/>
            </g>
          </g>
          <g id="Group_1343" data-name="Group 1343" transform="translate(8.221 56.903)">
            <path id="Path_2407" data-name="Path 2407" d="M428.3,1468.6h.12a5.467,5.467,0,1,1-4.636,2.485A5.334,5.334,0,0,1,428.3,1468.6Z" transform="translate(-345.659 -1323.056)" fill="#d3d7dc"/>
            <path id="Path_2408" data-name="Path 2408" d="M109.666,1471.184a5.412,5.412,0,1,1-4.636-2.486h.119A5.287,5.287,0,0,1,109.666,1471.184Z" transform="translate(-99.7 -1323.13)" fill="#d3d7dc"/>
            <g id="Group_1342" data-name="Group 1342" transform="translate(5.401)">
              <path id="Path_2409" data-name="Path 2409" d="M269.375,1469.7a5.431,5.431,0,1,1-6.214-.191,5.323,5.323,0,0,1,6.214.191Z" transform="translate(-227.624 -1323.056)" fill="#d3d7dc"/>
              <path id="Path_2410" data-name="Path 2410" d="M164.051,1424.635a3.02,3.02,0,0,0,2.987,3.059h18.713a16.023,16.023,0,0,1,11.5,4.875l2.294,2.342h-.12a5.407,5.407,0,0,0-4.541,2.485c-2.772-2.772-5.736-5.234-9.631-5.234H166.943a2.927,2.927,0,0,0-2.916,2.916v.908a5.361,5.361,0,0,0-6.238-.191v-.717a2.912,2.912,0,0,0-2.916-2.916H136.591c-3.919,0-6.859,2.462-9.631,5.234a5.351,5.351,0,0,0-4.541-2.486h-.12l2.27-2.342a16.175,16.175,0,0,1,11.519-4.875H154.8a3.035,3.035,0,0,0,2.987-3.059v-.335h6.262Z" transform="translate(-122.3 -1289.343)" fill="url(#linear-gradient-38)"/>
              <path id="Path_2411" data-name="Path 2411" d="M147.272,1214.565a3.876,3.876,0,0,1-3.872-3.9V1203.6a3.925,3.925,0,0,1,3.9-3.9h59.437a3.891,3.891,0,0,1,3.9,3.872v7.074a3.9,3.9,0,0,1-3.9,3.9h-59.46Z" transform="translate(-138.357 -1118.42)" fill="url(#linear-gradient-39)"/>
              <path id="Path_2412" data-name="Path 2412" d="M222.812,1270.288a8.482,8.482,0,0,1-5.951-2.461,8.284,8.284,0,0,1-2.462-5.927h33.219a8.384,8.384,0,0,1-8.388,8.388H222.812Z" transform="translate(-192.389 -1165.755)" fill="url(#linear-gradient-40)"/>
              <path id="Path_2413" data-name="Path 2413" d="M273.175,1353.8v16.849H263.4V1353.8h9.775Z" transform="translate(-229.679 -1235.692)" fill="url(#linear-gradient-41)"/>
              <rect id="Rectangle_544" data-name="Rectangle 544" width="6.644" height="13.551" transform="translate(35.299 104.534)" fill="#001f8e"/>
              <path id="Path_2414" data-name="Path 2414" d="M217.749,881.706h-1.673V862.42a2.825,2.825,0,0,0-2.82-2.82h-47.7a2.825,2.825,0,0,0-2.82,2.82v19.286h-1.673a3.57,3.57,0,0,0-3.561,3.561v45.719a3.57,3.57,0,0,0,3.561,3.561h56.664a3.57,3.57,0,0,0,3.561-3.561V885.267A3.519,3.519,0,0,0,217.749,881.706Z" transform="translate(-149.088 -859.6)" fill="url(#linear-gradient-42)"/>
              <rect id="Rectangle_545" data-name="Rectangle 545" width="24.066" height="15.988" transform="translate(28.177 65.316)" fill="url(#linear-gradient-43)"/>
            </g>
          </g>
        </g>
        <path id="Path_5846" data-name="Path 5846" d="M-77.008,757.563s-3.609-1.195-3.131-2.868c.5-1.7,6.6.574,6.6.574Z" transform="translate(174.205 -556.956)" fill="#ebb69f"/>
        <g id="Group_2132" data-name="Group 2132" transform="translate(37.665 193.558)">
          <path id="Path_2416" data-name="Path 2416" d="M39.931,1365.2h.119a5.832,5.832,0,1,1-5.951,5.831,5.953,5.953,0,0,1,.932-3.155A5.86,5.86,0,0,1,39.931,1365.2Z" transform="translate(49.57 -1215.593)" fill="#d3d7dc"/>
          <path id="Path_2417" data-name="Path 2417" d="M-301.469,1367.876a5.749,5.749,0,0,1,.932,3.155,5.824,5.824,0,0,1-5.831,5.831,5.824,5.824,0,0,1-5.831-5.831,5.831,5.831,0,0,1,5.712-5.831h.119A5.828,5.828,0,0,1-301.469,1367.876Z" transform="translate(313.108 -1215.593)" fill="#d3d7dc"/>
          <path id="Path_2418" data-name="Path 2418" d="M-130.279,1366.295a5.815,5.815,0,0,1,2.342,4.66,5.824,5.824,0,0,1-5.831,5.831,5.824,5.824,0,0,1-5.831-5.831,5.832,5.832,0,0,1,2.629-4.875,5.638,5.638,0,0,1,3.2-.98A5.966,5.966,0,0,1-130.279,1366.295Z" transform="translate(181.758 -1215.517)" fill="#d3d7dc"/>
          <path id="Path_2419" data-name="Path 2419" d="M-303.979,899.511l-6.572-4.66A12.883,12.883,0,0,1-316,884.312V839.43c0-10.157,2.677-9.679,2.916-9.607l1.673,31.833v18.139a11.213,11.213,0,0,0,7.05,10.4l1.052.43a4.087,4.087,0,0,0-.669,2.27Z" transform="translate(316 -808.146)" fill="url(#linear-gradient-44)"/>
          <path id="Path_2420" data-name="Path 2420" d="M-306.681,760.876l-.932-18.139a3.361,3.361,0,0,1,3.37-3.537h4.756a3.357,3.357,0,0,1,3.37,3.25c.263,7.361,1,25.022,2.438,29.3,1.816,5.425,7.958,28.607-3.991,30.065h-3.7a3.381,3.381,0,0,1-3.37-3.2l-.311-5.831v-.024Z" transform="translate(309.621 -739.2)" fill="url(#linear-gradient-45)"/>
          <path id="Path_2421" data-name="Path 2421" d="M-243.366,1318.034a3.259,3.259,0,0,0,3.226,3.3h20.1a17.293,17.293,0,0,1,12.356,5.234l2.462,2.509h-.119a5.787,5.787,0,0,0-4.875,2.677c-2.987-2.963-6.166-5.616-10.348-5.616h-19.669a3.147,3.147,0,0,0-3.131,3.155v.98a5.785,5.785,0,0,0-3.489-1.171,5.639,5.639,0,0,0-3.2.98v-.765a3.147,3.147,0,0,0-3.131-3.155h-19.669c-4.206,0-7.361,2.653-10.348,5.616a5.787,5.787,0,0,0-4.875-2.677h-.119l2.438-2.509a17.389,17.389,0,0,1,12.38-5.234h20.123a3.275,3.275,0,0,0,3.226-3.3v-.359h6.692v.335Z" transform="translate(294.844 -1179.445)" fill="url(#linear-gradient-46)"/>
          <path id="Path_2422" data-name="Path 2422" d="M-261.518,1092.341a4.187,4.187,0,0,1-4.182-4.182v-7.6a4.088,4.088,0,0,1,.669-2.271,4.138,4.138,0,0,1,3.489-1.888h63.882a4.172,4.172,0,0,1,4.182,4.182v7.6a4.172,4.172,0,0,1-4.182,4.182h-63.858Z" transform="translate(277.721 -995.813)" fill="url(#linear-gradient-47)"/>
          <path id="Path_2423" data-name="Path 2423" d="M-180.266,1152.134a8.936,8.936,0,0,1-6.381-2.653,8.993,8.993,0,0,1-2.653-6.381h35.681a9.042,9.042,0,0,1-9.034,9.034h-17.613Z" transform="translate(219.58 -1046.573)" fill="url(#linear-gradient-48)"/>
          <path id="Path_2424" data-name="Path 2424" d="M-126.108,1241.8v18.115H-136.6V1241.8h10.492Z" transform="translate(179.475 -1121.684)" fill="url(#linear-gradient-49)"/>
          <rect id="Rectangle_546" data-name="Rectangle 546" width="7.122" height="14.578" transform="translate(44.571 105.561)" fill="#001f8e"/>
        </g>
        <path id="Path_5847" data-name="Path 5847" d="M-181.281,677.62a.288.288,0,0,1-.119-.12,3.054,3.054,0,0,0,.287.239h0a.334.334,0,0,0-.1-.072C-181.233,677.643-181.257,677.62-181.281,677.62Z" transform="translate(251.232 -498.689)" fill="none"/>
        <path id="Path_5848" data-name="Path 5848" d="M-181.552,662c-.024.024-.024.024-.024.048l-.024.024.024-.024A.074.074,0,0,1-181.552,662Z" transform="translate(251.384 -486.893)" fill="none"/>
        <path id="Path_5849" data-name="Path 5849" d="M-187.711,710.359a4.356,4.356,0,0,0,.55-.359,4.5,4.5,0,0,1-.55.382,6.091,6.091,0,0,1-.789.406c.143-.072.311-.167.454-.239C-187.95,710.5-187.831,710.43-187.711,710.359Z" transform="translate(256.636 -523.422)" fill="none"/>
        <path id="Path_5850" data-name="Path 5850" d="M-175.752,679.8h0Z" transform="translate(246.97 -500.439)" fill="none"/>
        <path id="Path_5851" data-name="Path 5851" d="M-175.652,656.7c-.024,0-.024,0-.048.024a.083.083,0,0,0,.048-.024Z" transform="translate(246.895 -482.86)" fill="none"/>
        <path id="Path_5852" data-name="Path 5852" d="M-178.309,705.3c-.072.072-.12.143-.191.215v-.024Z" transform="translate(249.025 -519.845)" fill="none"/>
        <path id="Path_5853" data-name="Path 5853" d="M-175.952,656.9c-.024,0-.024.024-.048.024,0-.024.048-.024.048-.024Z" transform="translate(247.123 -483.012)" fill="none"/>
        <path id="Path_5854" data-name="Path 5854" d="M-175.4,656.7Z" transform="translate(246.665 -482.86)" fill="none"/>
        <path id="Path_5855" data-name="Path 5855" d="M-190.933,714.2c-.048.024-.12.024-.167.048a.345.345,0,0,1,.167-.048Z" transform="translate(258.614 -526.618)" fill="none"/>
        <path id="Path_5856" data-name="Path 5856" d="M-198.523,715.1a8.694,8.694,0,0,1-1.075.239c-.167.024-.335.024-.5.048a3.563,3.563,0,0,0,.5-.048C-199.24,715.267-198.881,715.2-198.523,715.1Z" transform="translate(265.463 -527.303)" fill="none"/>
        <path id="Path_5857" data-name="Path 5857" d="M-173.681,679.5h0l-1.219.072Z" transform="translate(246.286 -500.211)" fill="none"/>
        <path id="Path_5858" data-name="Path 5858" d="M-191.885,714.4l-.215.072c.024,0,.024,0,.024-.024C-192,714.424-191.933,714.424-191.885,714.4Z" transform="translate(259.375 -526.77)" fill="none"/>
        <path id="Path_5859" data-name="Path 5859" d="M-185.5,776.43c.143-.143.287-.287.454-.43-.167.167-.311.311-.454.43Z" transform="translate(254.352 -573.649)" fill="none"/>
        <path id="Path_5860" data-name="Path 5860" d="M-197.544,614.559a3.176,3.176,0,0,1-.454.335,2.12,2.12,0,0,1-.239.143,5.116,5.116,0,0,1-.717.406l-.143.048c0,.024-.024.024-.048.024-.048.024-.119.048-.167.072-.072.024-.12.048-.191.072a1.626,1.626,0,0,1-.191.072c-.143.024-.263.072-.406.1-.072.024-.167.048-.263.072a.3.3,0,0,0-.143.024.087.087,0,0,0-.072.024c-.263.024-.526.072-.789.1h-.143l-.789.048-.789.024h-.191c-.024,0-.024,0-.048.024-.1,0-.191.024-.287.024h0a2.453,2.453,0,0,0-.6.167c-.024,0-.024,0-.048.024l-.048.024c-.024,0-.048.024-.1.048h-.048c-.024,0-.024.024-.048.024h-.024s-.048,0-.048.024c-.024,0-.024,0-.048.024a3.53,3.53,0,0,1-.311.191h-.024a2.524,2.524,0,0,0-.263.215h0c-.024.024-.072.048-.1.1a.523.523,0,0,0-.1.12,1.563,1.563,0,0,0-.287.359l-.048.048c0,.024-.024.024-.024.048h0c0,.024-.024.024-.024.048-.024,0-.024.024-.048.048l-.024.024-.024.024c0,.024-.024.024,0,.024a.023.023,0,0,0-.024.024c-.024.048-.048.072-.072.12h0c-.024.024-.024.072-.048.12h-.024a.074.074,0,0,1-.024.048c0,.024-.024.048-.024.1-.024.024-.024.1-.048.143-.024.024-.024.072-.048.12a.023.023,0,0,0-.024.024.258.258,0,0,0-.024.143,1.212,1.212,0,0,0-.048.311c-.024.1-.024.215-.048.311v.048c-.024,0-.024,0,0,.024a.088.088,0,0,0-.024.072v.167l.024.526v.239a2.1,2.1,0,0,0,.12.358l.048.072a.806.806,0,0,0,.167.263.329.329,0,0,0,.072.1h0c0,.024.024.024.048.048a.023.023,0,0,0,.024.024.539.539,0,0,0,.119.12c.024,0,.048.024.072.048s.072.048.1.072a.088.088,0,0,0,.072.024.084.084,0,0,1,.048.024c.024,0,.024,0,.048.024h0l.143.072c0,.024.048.024.048.024h.048c0,.024.024.024.048.024h.048a.855.855,0,0,0,.263.048h.43l1.219-.048h0v.765h0v.669a.594.594,0,0,0-.024.191,4.881,4.881,0,0,1-.143.884c-.024.167-.072.335-.1.5h0c-.048.167-.1.311-.143.478-.024.1-.072.191-.1.287-.072.215-.191.43-.287.645a2.855,2.855,0,0,1-.287.526c-.024.048-.024.1-.048.12s-.048.072-.1.12l-.024.048c-.048.072-.119.167-.191.263-.024.024-.024.048-.048.1a.084.084,0,0,0-.024.048.239.239,0,0,1-.1.12h0c-.1.1-.167.191-.263.287-.072.072-.12.143-.191.215v.024h-.024c-.143.143-.311.311-.478.454-.024,0-.024,0-.024.024-.167.143-.335.287-.5.406h-.024c-.167.12-.358.239-.55.358a1.518,1.518,0,0,1-.335.191c-.143.072-.287.167-.454.239a3.678,3.678,0,0,1-.454.191.442.442,0,0,0-.167.048c-.048.024-.12.024-.167.048l-.024.024h-.024l-.215.072a.144.144,0,0,0-.1.024,8.552,8.552,0,0,1-1.075.215,3.561,3.561,0,0,1-.5.048l-2.39.167-.167-2.8-.311-6.62v-.167l-.143-2.629-.335-7.074v-.024l-.024-.478c0-.072.024-.143.024-.239a.814.814,0,0,0,.024-.239c.024-.119.024-.239.048-.358l.024-.143a3.383,3.383,0,0,1,.1-.478c.024-.143.1-.311.143-.478a2.688,2.688,0,0,1,.119-.311c.048-.12.1-.215.143-.335a5.249,5.249,0,0,1,.358-.621c.072-.12.167-.239.239-.359h.024a2.531,2.531,0,0,1,.239-.287.051.051,0,0,1,.048-.048.023.023,0,0,0,.024-.024c.048-.048.1-.12.143-.167l.167-.167.358-.311a5.663,5.663,0,0,1,.789-.526,6.025,6.025,0,0,1,.884-.43l6.692-.406,1.96-.12,1-.048,2.485-.143h.024l7.409-.43a1.12,1.12,0,0,1,.215.143c.072.048.119.12.191.167a1.684,1.684,0,0,1,.143.215l.143.215h0a1.659,1.659,0,0,0,.119.311,2.21,2.21,0,0,1,.1.693c0,.072-.024.143-.024.215a.216.216,0,0,0-.024.12c0,.024-.024.072-.024.1a.179.179,0,0,0-.024.12c-.024.024-.024.048-.048.1a1.055,1.055,0,0,1-.191.358,1.493,1.493,0,0,1-.215.287l-1.219,1.147-5.975,5.592Z" transform="translate(275.813 -442.678)" fill="#171721"/>
        <path id="Path_5861" data-name="Path 5861" d="M-184.785,792.938h0l-3.633-5.329-5.425-7.958-.43-.717a6.206,6.206,0,0,1-.335-.693c-.024,0,0-.024-.024-.048-.1-.215-.167-.454-.239-.669a7.793,7.793,0,0,1-.359-2.677c.024-.191.024-.382.048-.574l.072-.5a.181.181,0,0,1,.024-.1h0a.407.407,0,0,0,.024-.167,2.023,2.023,0,0,1,.1-.406v-.024a4.82,4.82,0,0,1,.167-.55,2.8,2.8,0,0,1,.215-.574c.072-.167.143-.359.239-.55a6.01,6.01,0,0,1,.311-.526,9.6,9.6,0,0,1,.717-1c.143-.167.263-.311.43-.478l.454-.454a2.861,2.861,0,0,1,.5-.406c.167-.12.358-.239.526-.382a8.912,8.912,0,0,1,1.506-.765,7.284,7.284,0,0,1,1.553-.478,4.458,4.458,0,0,1,.765-.1c.167-.024.335-.024.5-.048a9.974,9.974,0,0,1,1.195.024c.119.024.263.024.406.048.072,0,.143.024.215.024a10.841,10.841,0,0,1,1.195.287c.143.024.287.1.454.143a7.287,7.287,0,0,1,1.768.908.023.023,0,0,0,.024.024c.024.024.1.048.12.072.143.1.311.239.478.358.12.1.263.215.382.311l.215.215a1.449,1.449,0,0,1,.191.191l.358.43.072.072.358.5,5.664,8.317h0l3.37,4.971h0l-10.324,6.716Z" transform="translate(261.763 -566.616)" fill="#2930b2"/>
        <path id="Path_5862" data-name="Path 5862" d="M-160.932,726.566h0l-1.684-1.914-.668-.728-.187-.216-.829-.97h0l3.048-.162a4.34,4.34,0,0,0,.615-.054,9.511,9.511,0,0,0,1.2-.242.239.239,0,0,0,.134-.027.94.94,0,0,0,.267-.054h.027l.027.135.107,1.671.267,5.175h0l-.615-.7Z" transform="translate(237.615 -532.707)" fill="#ebb69f"/>
        <path id="Path_5863" data-name="Path 5863" d="M-204.923,650.211l-4.9.287-.478-9.781,2.39-.191a3.57,3.57,0,0,0,.5-.048,5.394,5.394,0,0,0,1.075-.239.144.144,0,0,0,.1-.024l.215-.072H-206a.385.385,0,0,0,.215-.072.443.443,0,0,0,.167-.048h0a3.672,3.672,0,0,0,.454-.191c.263-.119.526-.263.789-.406a4.5,4.5,0,0,0,.55-.382h.024c.167-.12.335-.263.5-.406a.023.023,0,0,1,.024-.024,1.322,1.322,0,0,0,.2-.176h.024a1.55,1.55,0,0,1,.191-.215,3.412,3.412,0,0,0,.263-.287h0c.024-.024.048-.072.1-.12,0-.024.024-.024.024-.048a.124.124,0,0,0,.048-.1c.072-.1.12-.167.191-.263l.024-.048a.519.519,0,0,1,.1-.119.183.183,0,0,0,.048-.12c.119-.167.493-.081.565-.248.1-.215.215-.43.287-.645.024-.1.072-.191.1-.287.048-.167.1-.311.143-.478h0c.024-.167.072-.335.1-.5.048-.287.1-.6.143-.884a.594.594,0,0,1,.024-.191v-.669h0v-.765h0v-.024l-1.219.072h-.43a.858.858,0,0,1-.263-.048h-.048a.074.074,0,0,1-.048-.024h-.048s-.048,0-.048-.024a.206.206,0,0,1-.143-.072h0a.074.074,0,0,1-.048-.024c0-.024-.024-.024-.048-.024a.24.24,0,0,0-.072-.024h0c-.1-.072-.191-.167-.287-.239a.023.023,0,0,0-.024-.024l-.048-.048h0a.328.328,0,0,1-.072-.1.989.989,0,0,1-.167-.263l-.048-.072a1.261,1.261,0,0,1-.12-.358v-.239l-.024-.526v-.167a.088.088,0,0,1,.024-.072c-.024-.024-.024-.024,0-.024v-.048c.024-.1.024-.215.048-.311a1.211,1.211,0,0,1,.048-.311.3.3,0,0,0,.024-.143.023.023,0,0,1,.024-.024.4.4,0,0,1,.048-.119c0-.048-.254-.1-.23-.143a.144.144,0,0,0,.024-.1.074.074,0,0,1,.024-.048h.024a.183.183,0,0,1,.048-.12h0a.521.521,0,0,0,.072-.119.023.023,0,0,1,.024-.024c-.024,0,0-.024,0-.024l.024-.024.024-.024c.024-.024.024-.024.024-.048s.024-.024.024-.048h0c.024-.024.3-.58.3-.6s.024-.024.048-.048a2.345,2.345,0,0,1,.287-.358c.024-.048.072-.072.1-.12l.1-.1h0a2.553,2.553,0,0,1,.263-.215h.024c.1-.048.191-.12.311-.191.024,0,.024-.024.048-.024a.083.083,0,0,1,.048-.024h.024c.024,0,.024-.024.048-.024h.048c.048-.024.072-.024.1-.048l.048-.024a.074.074,0,0,0,.048-.024,2.181,2.181,0,0,1,.6-.167h0c.1,0,.191-.024.287-.024.024,0,.024,0,.048-.024h.191l.789-.024.789-.048h.143c.263-.024.526-.072.789-.1a.088.088,0,0,0,.072-.024.3.3,0,0,0,.143-.024.85.85,0,0,0,.263-.072c.143-.024.263-.072.406-.1a.986.986,0,0,0,.191-.072c.072-.024.12-.048.191-.072.048-.024.12-.048.167-.072.024,0,.048,0,.048-.024l.143-.048a5.1,5.1,0,0,0,.717-.406c.072-.048.421-.651.517-.7a5.506,5.506,0,0,0,.454-.335l.358-.311,7.435-7-1.021,16.908v.382c0,.263,0,.526-.024.765,0,.12-.024.239-.024.382a9.573,9.573,0,0,1-.335,1.482,5.894,5.894,0,0,1-.239.693c-.1.215-.191.454-.311.693-.048.1-.1.191-.167.311a2.856,2.856,0,0,1-.215.359,2.181,2.181,0,0,1-.191.311,3.5,3.5,0,0,0-.215.311c-.143.215-.311.382-.454.6a6.524,6.524,0,0,1-.813.813,2.543,2.543,0,0,0-.287.239,6.107,6.107,0,0,1-.621.478,5.9,5.9,0,0,1-.645.406h0c-.143.072-.287.167-.454.239a4.686,4.686,0,0,1-.789.359c-.287.12-.574.215-.884.311h-.024a.852.852,0,0,1-.239.048.259.259,0,0,0-.12.024,7.786,7.786,0,0,1-1.075.215c-.167.024-.358.024-.55.048l-2.724.143h0l.741.86.167.191.6.645,1.506,1.673h0l1.506,1.7.55.621v.024l.048.884-5.831.335Z" transform="translate(273.225 -453.022)" fill="#f0c6b4"/>
        <path id="Path_5864" data-name="Path 5864" d="M-244.334,795.863c.048-1.53.12-3.035.191-4.445.1-1.745.239-3.394.358-4.923a.377.377,0,0,1,.024-.1c0-.048.024-.143.024-.239a1.034,1.034,0,0,0,.024-.12h0v-.072a.3.3,0,0,0,.024-.143l.024-.12c.048-.478.1-.932.143-1.386q.072-.789.143-1.506c.1-.956.191-1.912.287-2.82.048-.5.12-1,.167-1.482s.1-.98.143-1.458l.072-.573c.024-.239.048-.478.072-.693.1-.956.191-1.912.287-2.844a.088.088,0,0,0,.024-.072c.072-.621.167-1.219.239-1.792.024-.287.072-.6.119-.86.048-.311.1-.6.143-.884a4.327,4.327,0,0,0,.072-.55c.048-.239.072-.454.119-.669.048-.335.12-.669.167-.98s.12-.621.167-.908l.215-1.075c.072-.359.167-.693.239-1.028.191-.98.43-1.84.669-2.653a.088.088,0,0,0,.024-.072c.072-.263.167-.55.239-.789.311-.98.621-1.84.932-2.6a5.468,5.468,0,0,1,.239-.55c1.267-2.916,2.438-3.943,2.916-4.254a1.41,1.41,0,0,1,.191-.1.033.033,0,0,1,.048,0l4.9-.287,4.9-.287,5.831-.335h0l.024.024a1.782,1.782,0,0,1,.143.12l.024.024a3.145,3.145,0,0,1,.239.263,1.83,1.83,0,0,1,.215.215c.12.143.263.287.406.454.5.55,1.147,1.314,1.84,2.246.1.143.239.311.358.478.358.478.717,1,1.1,1.577.335.526.693,1.075,1.028,1.673a34.842,34.842,0,0,1,1.768,3.537l.143.358a30.95,30.95,0,0,1,1.458,4.565h0l-.072.048h0l-5.664-8.317-.358-.5-.072-.072c-.12-.143-.215-.287-.358-.43a1.447,1.447,0,0,1-.191-.191l-.215-.215c-.119-.1-.239-.215-.382-.311a3.561,3.561,0,0,0-.478-.359.523.523,0,0,0-.12-.072c-.024,0-.024,0-.024-.024a9.5,9.5,0,0,0-1.769-.908,2.522,2.522,0,0,0-.454-.143,9.692,9.692,0,0,0-1.195-.287c-.072,0-.143-.024-.215-.024-.119-.024-.263-.024-.406-.048a10.012,10.012,0,0,0-1.195-.024,3.544,3.544,0,0,0-.5.048,3.943,3.943,0,0,0-.765.1,7.292,7.292,0,0,0-1.553.478,12.717,12.717,0,0,0-1.506.765c-.167.12-.359.239-.526.382-.167.12-.335.263-.5.406s-.311.287-.454.43h0c-.143.143-.287.311-.43.478a7.614,7.614,0,0,0-.717,1c-.1.167-.215.358-.311.526-.1.191-.167.382-.239.55l-.215.574a4.818,4.818,0,0,1-.167.55v.024a3.265,3.265,0,0,1-.1.406.354.354,0,0,0-.024.167h0a.144.144,0,0,0-.024.1l-.072.5c-.024.191-.024.382-.048.574a8.6,8.6,0,0,0,.358,2.677c.072.215.143.454.239.669.024,0,0,.024.024.048.1.239.215.454.335.693a5.692,5.692,0,0,0,.43.717l5.425,7.958,3.633,5.329h0a.185.185,0,0,0,.072.048,1.924,1.924,0,0,0,.191.143l.024.024a3.733,3.733,0,0,0,.287.239c.048.024.1.072.143.1.1.072.191.143.311.239l.024.024a1.74,1.74,0,0,1,.263.215c.167.12.359.287.574.43a.083.083,0,0,0,.048.024c.1.072.215.167.335.263.335.263.717.526,1.1.837a.074.074,0,0,1,.048.024c.406.311.86.645,1.314.956.287.215.6.43.908.645,0,.024.024.024.048.048.645.454,1.338.932,2.055,1.41.6.382,1.219.789,1.84,1.171.478.311.98.621,1.458.908.382.239.765.454,1.147.669h0l-.048,7.241-.072,11.209c-.024,0-.6.191-1.6.454-.1.024-.215.072-.358.1H-212c0,.024,0,.024-.024,0-.072.024-.143.048-.239.072-.215.048-.43.12-.693.167-.072.024-.167.048-.263.072-.215.048-.43.1-.669.167-.6.143-1.243.311-1.96.454-.287.072-.574.143-.86.191-.6.12-1.219.263-1.864.382a3.4,3.4,0,0,1-.478.1c-1.577.311-3.37.621-5.21.86-.072,0-.143.024-.239.024-.143.024-.287.024-.43.048-.287.024-.574.048-.86.1-.741.1-1.482.167-2.246.239-.167,0-.335.024-.5.024-.263.024-.55.024-.813.048-.239,0-.5.024-.741.048-.932.048-1.864.072-2.772.048h-.1c-.478,0-.98,0-1.434-.024-.478-.024-.956-.048-1.434-.1l-1.386-.143c-.669-.1-1.314-.191-1.936-.311h0a17.132,17.132,0,0,1-1.984-.454,12.5,12.5,0,0,1-1.338-.43,3.514,3.514,0,0,1-.454-.167c-.1-.048-.191-.072-.311-.12l-.215-.072h-.024c-.1-.621-.215-1.267-.287-1.912-.072-.55-.143-1.1-.191-1.649-.072-.573-.12-1.147-.167-1.721-.072-.837-.12-1.673-.167-2.533-.024-.717-.048-1.434-.048-2.151v-2.079C-244.358,797.68-244.334,796.771-244.334,795.863Z" transform="translate(299.133 -555.536)" fill="#4952e6"/>
        <path id="Path_5865" data-name="Path 5865" d="M-44.779,1289.32l-1.338,3.824c-.311-.143-.645-.311-.956-.454-.55-.239-1.075-.478-1.553-.693-.191-.1-.406-.167-.6-.263-.1-.048-.215-.1-.311-.143-.167-.072-.358-.143-.526-.215-.263-.119-.526-.215-.765-.335-.167-.072-.311-.143-.454-.191-.287-.144-.55-.263-.765-.383a.358.358,0,0,0-.167-.072c-.048-.024-.119-.072-.167-.1a4.064,4.064,0,0,1-.406-.263l-.024-.024c-.119-.1-.167-.167-.167-.263H-53l.024-.024h0v-.048l1.1-3.179,7.1,2.772Z" transform="translate(153.518 -962.146)" fill="#f0c6b4"/>
        <path id="Path_5866" data-name="Path 5866" d="M-58.34,1300.387a4.065,4.065,0,0,0,.406.263,1.351,1.351,0,0,1,.167.1,1.192,1.192,0,0,0,.167.072c.215.1.478.239.765.382.143.072.287.12.454.191.239.1.5.215.765.335.167.048.335.143.526.215.1.048.215.1.311.143.191.072.382.167.6.263.5.215,1.028.43,1.553.693.311.144.645.311.956.454.526.239,1.028.5,1.53.765.167.1.358.191.526.287.072.048.167.072.239.12.119.072.215.119.335.191q.968.538,1.864,1.147c.215.143.406.287.621.43.215.167.43.335.621.478l.574.5a5.467,5.467,0,0,1,.526.526,5.053,5.053,0,0,1,.454.55l.143.215c.024.048.024.1.048.144a.857.857,0,0,1,.048.43,1.2,1.2,0,0,1-.048.287.482.482,0,0,1-.1.191c-.048.072-.072.119-.119.191l-.167.167c-.072.048-.119.072-.191.12h0a2.089,2.089,0,0,1-.358.119,1.185,1.185,0,0,1-.5-.024l-2.414-.621-.311-.072-8.795-2.223-3.155-.789h0l.836-3.011.956-3.513h.024a.37.37,0,0,0,.167.263C-58.364,1300.363-58.364,1300.363-58.34,1300.387Z" transform="translate(159.074 -972.494)" fill="#191151"/>
        <g id="Group_2133" data-name="Group 2133" transform="translate(66.247 284.038)">
          <path id="Path_2445" data-name="Path 2445" d="M-132.1,1127.025l-30.925,31.738-1.553-1.314h0l-4.278-3.561-.12-.1-.119-.119,14.315-35.872C-154.808,1117.8-134.016,1128.292-132.1,1127.025Z" transform="translate(175.624 -1117.8)" fill="#dedede"/>
          <path id="Path_2446" data-name="Path 2446" d="M-176.267,1268.039l4.278,3.561h0l-.143.167-1.649,1.625-1.506,1.505c-.167-.191-.335-.406-.478-.6a1.019,1.019,0,0,0-.119-.167c-.167-.191-.311-.382-.454-.573-.119-.144-.239-.311-.358-.454-.311-.382-.621-.765-.908-1.123-.215-.263-.43-.5-.621-.741-.143-.143-.239-.287-.359-.43v-.024a2.553,2.553,0,0,1-.215-.263l2.27-2.724.119.12Z" transform="translate(183.006 -1231.952)" fill="#f0c6b4"/>
          <path id="Path_2447" data-name="Path 2447" d="M-191.955,1279.487l.358.43c.191.239.406.478.621.741.287.359.6.717.908,1.123.119.144.239.287.358.454.143.191.311.382.454.574a1.008,1.008,0,0,1,.119.167c.167.191.311.406.478.6a5.25,5.25,0,0,0,.335.43,5.611,5.611,0,0,0,.454.6c.191.287.382.574.6.86.048.072.1.167.143.239.478.669.932,1.41,1.386,2.151.119.215.239.454.358.669.1.167.167.335.239.478.191.358.358.741.526,1.1a5.214,5.214,0,0,1,.215.55,15.058,15.058,0,0,1,.478,1.6,1.165,1.165,0,0,1,0,.573.257.257,0,0,1-.048.144c-.024.048-.024.1-.048.119-.048.072-.072.143-.119.215a1.528,1.528,0,0,1-.215.191,1.222,1.222,0,0,1-.5.239,1.162,1.162,0,0,1-.287.024.736.736,0,0,1-.215-.024.531.531,0,0,1-.239-.072,1.19,1.19,0,0,1-.335-.191.088.088,0,0,0-.072-.024l-10.157-8.938-.239-.215,4.254-5.091h0a1.994,1.994,0,0,0,.191.287Z" transform="translate(196.4 -1240.627)" fill="#191151"/>
        </g>
        <path id="Path_5867" data-name="Path 5867" d="M-165.288,681.723s-8.46.215-9.512.215A2.972,2.972,0,0,1-178,679.5s-4.063,1.888-1.984,3.967a21.08,21.08,0,0,0,3.322,2.6v4.111s6.716.621,9.7-3.37A7.934,7.934,0,0,0-165.288,681.723Z" transform="translate(250.606 -500.211)" fill="#171721"/>
        <path id="Path_5868" data-name="Path 5868" d="M-240.1,991.283c.143.048.311.12.454.167a12.442,12.442,0,0,0,1.338.43,18.314,18.314,0,0,0,1.984.454h0a16.345,16.345,0,0,0,1.936.311l1.386.143c.478.048.956.072,1.434.1s.956.024,1.434.024h.1c.908.024,1.84,0,2.772-.048.239,0,.5-.024.741-.048.263-.024.55-.024.813-.048.167,0,.335-.024.5-.024.765-.072,1.506-.143,2.246-.239.287-.024.574-.048.86-.1.143-.024.287-.024.43-.048a.736.736,0,0,0,.239-.024c1.84-.263,3.633-.55,5.21-.86a3.4,3.4,0,0,0,.478-.1c.645-.119,1.267-.263,1.864-.382.287-.048.574-.119.86-.191.717-.167,1.362-.311,1.96-.454a6.837,6.837,0,0,1,.669-.167c.1-.024.191-.048.263-.072.239-.048.478-.119.693-.167.072-.024.143-.048.239-.072h.048a1.978,1.978,0,0,0,.358-.1c1-.287,1.6-.454,1.6-.454V989.3a18.962,18.962,0,0,1,3.011,2.2c1.6,1.362,3.131,2.8,3.155,2.82v.024c.12.072.239.143.335.215a125.885,125.885,0,0,1,18.283,13.861c.908.86,1.745,1.673,2.509,2.485.86.884,1.649,1.721,2.366,2.557a49.014,49.014,0,0,1,3.513,4.517,31.081,31.081,0,0,1,2.987,5.258,21.617,21.617,0,0,1,1.386,4.182,9.3,9.3,0,0,1,.191,2.916c0,.048-.024.072-.024.119a27.556,27.556,0,0,1-1.6,6.477,51.191,51.191,0,0,1-2.557,5.807c-.717,1.434-1.506,2.868-2.318,4.23h0a125.657,125.657,0,0,1-11.328,15.893,2.939,2.939,0,0,1-.239.287l-7.1-2.772a47.179,47.179,0,0,1,1.362-19.095c.358-1.2.717-2.318,1.1-3.346a35.079,35.079,0,0,1,3.9-7.767l-5.951-2.82-.335-.144-.836-.311c-1.267-.478-3.274-1.243-6.548-2.462-.55-.191-1.123-.43-1.745-.645-.908-.334-1.888-.717-2.963-1.123l-4.374-1.625c-.6-.215-1.195-.454-1.816-.693-2.151-.813-4.541-1.7-7.194-2.7q-1.541-.573-3.011-1.291c-.358-.167-.693-.335-1.052-.526-.191-.1-.382-.215-.574-.311-.406-.215-.836-.454-1.219-.693-.311-.167-.574-.358-.86-.55s-.574-.359-.86-.55l-.86-.645c-.239-.191-.5-.382-.741-.574a8.531,8.531,0,0,1-.693-.621c-.287-.239-.55-.454-.813-.693-.143-.12-.287-.287-.43-.406-.765-.765-1.53-1.529-2.223-2.366a31.526,31.526,0,0,1-5.521-10.157,45.993,45.993,0,0,1-1.53-5.951c-.072-.359-.143-.717-.191-1.171v-.072a.763.763,0,0,0,.215.072A1.586,1.586,0,0,0-240.1,991.283Z" transform="translate(296.284 -735.971)" fill="url(#linear-gradient-50)"/>
        <path id="Path_5869" data-name="Path 5869" d="M-111.9,693.094l5.951,9.727a4.126,4.126,0,0,0,5.688,1.362l2.892-1.768a4.127,4.127,0,0,0,1.362-5.688l-.741-1.219,1.577-.956a1.319,1.319,0,0,0,.43-1.816l-1.506-2.462a1.319,1.319,0,0,0-1.816-.43l-1.577.956-2.318-3.8Zm14.411,1.219-1.386-2.27.932-.574a.6.6,0,0,1,.86.215l.717,1.171a.6.6,0,0,1-.215.86Z" transform="translate(198.341 -505.92)" fill="url(#linear-gradient-51)"/>
        <g id="Group_2134" data-name="Group 2134" transform="translate(76.954 188.083)">
          <path id="Path_2451" data-name="Path 2451" d="M-137.452,762.764l6.6,6.644-1.195-25.046,6.238-5.162s9.942,36.207,2.892,41.512c-3.824,2.868-15.463,4.708-28.679-8.723Z" transform="translate(151.6 -733.726)" fill="#f0c6b4"/>
          <path id="Path_2452" data-name="Path 2452" d="M-60.207,723.228s-1.912-8.1-3.728-6.787c-4.541,3.274.239,11.328.239,11.328Z" transform="translate(86.376 -716.296)" fill="#ebb69f"/>
        </g>
        <g id="_90904" data-name="90904" transform="translate(352.142 67.353)">
          <path id="Path_2453" data-name="Path 2453" d="M80.535,416a.535.535,0,1,0,.378.157A.535.535,0,0,0,80.535,416Z" transform="translate(-74.298 -386.352)" fill="#373f4b"/>
          <path id="Path_2454" data-name="Path 2454" d="M35.506,24.1l-4.16,4.16a2.239,2.239,0,0,0-2.371.029.531.531,0,0,0-.125-.2l-5.7-5.7a.538.538,0,0,0-.085-.069l.379-6.44a.532.532,0,0,0,.276-.147l7.412-7.412a.532.532,0,0,0,.072-.09c.049-.025.1-.051.143-.08l4.16,4.16a.534.534,0,1,0,.756-.756L32.1,7.4a2.244,2.244,0,0,0-3.083-3.083L24.859.157A.534.534,0,1,0,24.1.913l4.16,4.16a2.231,2.231,0,0,0-.326,1.163,2.257,2.257,0,0,0,.018.279L22.6,10.262a5.493,5.493,0,0,0-.484-.593,5.373,5.373,0,0,0-7.818,0,5.486,5.486,0,0,0-.484.593L8.463,6.516a2.257,2.257,0,0,0,.018-.279,2.232,2.232,0,0,0-.326-1.163l4.16-4.16A.534.534,0,1,0,11.56.157L7.4,4.317A2.244,2.244,0,0,0,4.317,7.4L.157,11.56a.534.534,0,1,0,.756.756l4.16-4.16c.047.028.095.055.143.08a.536.536,0,0,0,.072.09L12.7,15.737a.532.532,0,0,0,.276.147l.379,6.44a.538.538,0,0,0-.085.069l-5.7,5.7a.532.532,0,0,0-.125.2,2.239,2.239,0,0,0-2.371-.029L.913,24.1a.534.534,0,1,0-.756.756l4.16,4.16A2.244,2.244,0,0,0,7.4,32.1l4.16,4.16a.534.534,0,1,0,.756-.756L8.263,31.453l6.518-3.509a2.8,2.8,0,0,0,1.589.493H20.05a2.8,2.8,0,0,0,1.589-.493l6.518,3.509L24.1,35.506a.534.534,0,1,0,.756.756l4.16-4.16A2.244,2.244,0,0,0,32.1,29.019l4.16-4.16a.535.535,0,0,0-.756-.756ZM28.094,28.85a.531.531,0,0,0,.2.125,2.23,2.23,0,0,0-.353,1.147l-5.524-2.975a2.8,2.8,0,0,0,.446-1.36l.121-2.05ZM30.183,5.06a1.176,1.176,0,1,1-1.176,1.176A1.177,1.177,0,0,1,30.183,5.06ZM28.357,7.54a2.252,2.252,0,0,0,1.2.851l-6.024,6.024.044-.743a5.341,5.341,0,0,0-.44-2.474ZM15.078,10.4q.152-.161.316-.3v1.268a.535.535,0,1,0,1.069,0V9.657a.533.533,0,0,0-.046-.217A4.329,4.329,0,0,1,20,9.44a.531.531,0,0,0-.046.217v1.71a.535.535,0,1,0,1.069,0V10.1q.164.143.316.3a4.263,4.263,0,0,1,1.165,3.205l-.713,12.116a1.745,1.745,0,0,1-.769,1.345V13.648a.535.535,0,1,0-1.069,0V27.332c0,.012,0,.024,0,.036h-3.5c0-.012,0-.024,0-.036V13.648a.535.535,0,1,0-1.069,0V27.069a1.745,1.745,0,0,1-.769-1.345l-.713-12.116A4.263,4.263,0,0,1,15.078,10.4ZM6.236,5.06A1.176,1.176,0,1,1,5.06,6.236,1.177,1.177,0,0,1,6.236,5.06Zm.63,3.33a2.252,2.252,0,0,0,1.2-.851L13.286,11.2a5.342,5.342,0,0,0-.44,2.474l.044.743Zm6.572,15.346.121,2.05A2.8,2.8,0,0,0,14,27.147L8.48,30.122a2.23,2.23,0,0,0-.353-1.147.531.531,0,0,0,.2-.125Zm-7.2,7.622a1.176,1.176,0,1,1,1.176-1.176A1.177,1.177,0,0,1,6.236,31.359Zm23.946,0a1.176,1.176,0,1,1,1.176-1.176A1.177,1.177,0,0,1,30.183,31.359Z" transform="translate(0 0)" fill="#4952e6"/>
          <path id="Path_2455" data-name="Path 2455" d="M416.534,416a.535.535,0,1,0,.378.157A.536.536,0,0,0,416.534,416Z" transform="translate(-386.352 -386.352)" fill="#373f4b"/>
          <path id="Path_2456" data-name="Path 2456" d="M416.534,81.069a.535.535,0,1,0-.378-.157A.536.536,0,0,0,416.534,81.069Z" transform="translate(-386.352 -74.298)" fill="#373f4b"/>
          <path id="Path_2457" data-name="Path 2457" d="M80.535,81.069a.535.535,0,1,0-.378-.157A.536.536,0,0,0,80.535,81.069Z" transform="translate(-74.298 -74.298)" fill="#373f4b"/>
          <path id="Path_2458" data-name="Path 2458" d="M248.534,330.779a.534.534,0,0,0,.535-.535v-1.71a.535.535,0,0,0-1.069,0v1.71A.534.534,0,0,0,248.534,330.779Z" transform="translate(-230.325 -304.624)" fill="#373f4b"/>
        </g>
      </g>
    </g>
  </g>
</svg>
